<svg width="1330" height="888" viewBox="0 0 1330 888" fill="none" xmlns="http://www.w3.org/2000/svg">
<g clip-path="url(#clip0_224_48)">
<rect width="1330" height="888" rx="24" fill="#6772E5"/>
<rect x="125.774" y="246.625" width="179.805" height="59.75" rx="29.875" fill="#808AF2"/>
<path fill-rule="evenodd" clip-rule="evenodd" d="M177.498 267.493C177.51 267.537 177.516 267.582 177.516 267.628V274.689C177.516 274.78 177.493 274.869 177.448 274.947C177.403 275.026 177.338 275.091 177.26 275.136L171.384 278.548V285.312C171.384 285.496 171.287 285.666 171.129 285.759L158.865 292.881C158.836 292.897 158.806 292.907 158.775 292.918C158.764 292.922 158.753 292.929 158.741 292.932C158.655 292.955 158.565 292.955 158.479 292.932C158.465 292.928 158.452 292.921 158.439 292.915C158.411 292.905 158.382 292.896 158.355 292.881L146.093 285.759C146.015 285.713 145.95 285.648 145.905 285.57C145.86 285.492 145.836 285.403 145.836 285.312V264.127C145.836 264.081 145.843 264.036 145.854 263.992C145.858 263.977 145.867 263.964 145.872 263.949C145.882 263.922 145.891 263.894 145.905 263.869C145.914 263.852 145.928 263.839 145.94 263.823C145.954 263.803 145.968 263.782 145.985 263.764C146 263.749 146.019 263.738 146.035 263.725C146.054 263.71 146.07 263.693 146.092 263.681H146.092L152.223 260.12C152.301 260.074 152.389 260.051 152.479 260.051C152.568 260.051 152.656 260.074 152.734 260.12L158.865 263.681H158.866C158.887 263.693 158.904 263.71 158.923 263.724C158.939 263.737 158.958 263.749 158.972 263.763C158.99 263.782 159.003 263.803 159.018 263.823C159.029 263.839 159.044 263.852 159.053 263.869C159.067 263.895 159.076 263.922 159.086 263.949C159.091 263.964 159.1 263.977 159.104 263.993C159.116 264.037 159.122 264.082 159.122 264.127V277.359L164.231 274.391V267.627C164.231 267.582 164.237 267.536 164.249 267.493C164.253 267.478 164.262 267.464 164.267 267.45C164.277 267.422 164.286 267.395 164.3 267.37C164.309 267.353 164.323 267.339 164.334 267.324C164.35 267.303 164.362 267.282 164.38 267.264C164.395 267.249 164.413 267.238 164.43 267.226C164.449 267.21 164.466 267.193 164.486 267.181H164.487L170.619 263.62C170.696 263.575 170.784 263.551 170.874 263.551C170.964 263.551 171.052 263.575 171.129 263.62L177.26 267.181C177.282 267.194 177.299 267.21 177.318 267.225C177.334 267.238 177.352 267.249 177.367 267.264C177.385 267.282 177.398 267.303 177.413 267.324C177.424 267.339 177.438 267.353 177.447 267.37C177.462 267.395 177.47 267.422 177.481 267.45C177.486 267.464 177.495 267.478 177.498 267.493V267.493ZM176.494 274.391V268.519L174.349 269.765L171.384 271.487V277.359L176.495 274.391H176.494ZM170.363 285.014V279.138L167.447 280.818L159.121 285.611V291.543L170.363 285.014ZM146.858 265.019V285.014L158.099 291.542V285.612L152.227 282.259L152.225 282.258L152.222 282.257C152.202 282.245 152.186 282.228 152.167 282.214C152.151 282.201 152.133 282.191 152.119 282.177L152.118 282.175C152.101 282.159 152.089 282.139 152.075 282.121C152.063 282.104 152.047 282.089 152.037 282.071L152.037 282.069C152.025 282.05 152.018 282.026 152.01 282.004C152.001 281.985 151.991 281.967 151.985 281.947V281.946C151.979 281.921 151.978 281.896 151.975 281.871C151.973 281.851 151.968 281.832 151.968 281.813V281.811V267.986L149.004 266.264L146.858 265.019V265.019ZM152.479 261.161L147.371 264.127L152.478 267.094L157.586 264.127L152.478 261.161H152.479ZM155.136 279.673L158.1 277.952V265.019L155.954 266.265L152.99 267.986V280.92L155.136 279.673ZM170.874 264.661L165.766 267.628L170.874 270.594L175.981 267.627L170.874 264.661V264.661ZM170.363 271.487L167.399 269.765L165.253 268.519V274.391L168.217 276.112L170.363 277.359V271.487ZM158.609 284.72L166.102 280.405L169.847 278.249L164.743 275.285L158.866 278.698L153.51 281.808L158.609 284.72V284.72Z" fill="white"/>
<path d="M198.606 281.693H204.499V284H195.747V266.571H198.606V281.693ZM205.937 277.028C205.937 275.641 206.222 274.412 206.79 273.342C207.375 272.272 208.161 271.444 209.147 270.859C210.15 270.257 211.254 269.956 212.458 269.956C213.544 269.956 214.489 270.174 215.291 270.608C216.111 271.026 216.763 271.553 217.248 272.188V270.182H220.131V284H217.248V281.944C216.763 282.596 216.102 283.139 215.266 283.574C214.43 284.008 213.477 284.226 212.407 284.226C211.22 284.226 210.134 283.925 209.147 283.323C208.161 282.704 207.375 281.852 206.79 280.765C206.222 279.661 205.937 278.416 205.937 277.028ZM217.248 277.078C217.248 276.125 217.047 275.298 216.646 274.596C216.261 273.894 215.751 273.359 215.116 272.991C214.481 272.623 213.795 272.439 213.059 272.439C212.324 272.439 211.638 272.623 211.003 272.991C210.368 273.342 209.849 273.868 209.448 274.571C209.064 275.256 208.871 276.075 208.871 277.028C208.871 277.981 209.064 278.817 209.448 279.536C209.849 280.255 210.368 280.807 211.003 281.191C211.655 281.559 212.341 281.743 213.059 281.743C213.795 281.743 214.481 281.559 215.116 281.191C215.751 280.823 216.261 280.288 216.646 279.586C217.047 278.867 217.248 278.031 217.248 277.078ZM226.745 272.188C227.163 271.486 227.715 270.943 228.401 270.558C229.103 270.157 229.93 269.956 230.883 269.956V272.915H230.156C229.036 272.915 228.183 273.2 227.598 273.768C227.03 274.337 226.745 275.323 226.745 276.727V284H223.887V270.182H226.745V272.188ZM232.558 277.028C232.558 275.641 232.842 274.412 233.411 273.342C233.996 272.272 234.782 271.444 235.768 270.859C236.771 270.257 237.875 269.956 239.079 269.956C240.165 269.956 241.11 270.174 241.912 270.608C242.732 271.026 243.384 271.553 243.868 272.188V270.182H246.752V284H243.868V281.944C243.384 282.596 242.723 283.139 241.887 283.574C241.051 284.008 240.098 284.226 239.028 284.226C237.841 284.226 236.755 283.925 235.768 283.323C234.782 282.704 233.996 281.852 233.411 280.765C232.842 279.661 232.558 278.416 232.558 277.028ZM243.868 277.078C243.868 276.125 243.668 275.298 243.267 274.596C242.882 273.894 242.372 273.359 241.737 272.991C241.102 272.623 240.416 272.439 239.68 272.439C238.945 272.439 238.259 272.623 237.624 272.991C236.989 273.342 236.47 273.868 236.069 274.571C235.685 275.256 235.492 276.075 235.492 277.028C235.492 277.981 235.685 278.817 236.069 279.536C236.47 280.255 236.989 280.807 237.624 281.191C238.276 281.559 238.962 281.743 239.68 281.743C240.416 281.743 241.102 281.559 241.737 281.191C242.372 280.823 242.882 280.288 243.267 279.586C243.668 278.867 243.868 278.031 243.868 277.078ZM255.849 281.442L259.761 270.182H262.796L257.529 284H254.119L248.877 270.182H251.937L255.849 281.442ZM277.621 276.752C277.621 277.271 277.588 277.739 277.521 278.157H266.963C267.047 279.26 267.456 280.146 268.192 280.815C268.928 281.484 269.83 281.818 270.9 281.818C272.438 281.818 273.525 281.175 274.16 279.887H277.245C276.827 281.158 276.066 282.203 274.963 283.022C273.876 283.824 272.522 284.226 270.9 284.226C269.58 284.226 268.393 283.933 267.339 283.348C266.303 282.746 265.483 281.91 264.882 280.84C264.296 279.753 264.004 278.5 264.004 277.078C264.004 275.657 264.288 274.412 264.857 273.342C265.442 272.255 266.253 271.419 267.289 270.834C268.342 270.249 269.546 269.956 270.9 269.956C272.204 269.956 273.366 270.24 274.386 270.809C275.406 271.377 276.2 272.18 276.769 273.216C277.337 274.236 277.621 275.415 277.621 276.752ZM274.637 275.85C274.62 274.796 274.244 273.952 273.508 273.317C272.773 272.681 271.862 272.364 270.775 272.364C269.789 272.364 268.944 272.681 268.242 273.317C267.54 273.935 267.122 274.78 266.988 275.85H274.637ZM283.294 265.442V284H280.435V265.442H283.294Z" fill="white"/>
<path d="M351.342 275.451H341.63V285.404H336.534V275.451H326.822V270.835H336.534V260.883H341.63V270.835H351.342V275.451Z" fill="white"/>
<rect x="372.579" y="246.625" width="149.701" height="59.75" rx="29.875" fill="#808AF2"/>
<path d="M415.217 260.926C419.083 260.926 422.217 264.06 422.217 267.926V288.699H394.444V267.926C394.444 264.06 397.578 260.926 401.444 260.926H415.217ZM408.292 266.134C402.885 266.134 400.808 268.822 400.808 274.81C400.808 280.797 402.884 283.486 408.292 283.486H415.747V279.576H408.72C406.511 279.576 405.484 278.794 405.2 276.827H412.032V276.83H414.431V276.133C414.433 276.11 414.434 276.087 414.434 276.062V273.68C414.434 273.656 414.433 273.632 414.431 273.609V272.919H413.756C413.728 272.916 413.699 272.915 413.67 272.915H405.185C405.446 270.878 406.469 270.044 408.72 270.044H415.686V266.134H408.292Z" fill="white"/>
<path d="M439.442 268.878V273.994H445.461V276.326H439.442V281.668H446.213V284H436.583V266.546H446.213V268.878H439.442ZM455.653 277.003L460.117 284H456.881L453.897 279.31L451.088 284H448.104L452.568 277.204L448.104 270.182H451.339L454.324 274.872L457.132 270.182H460.117L455.653 277.003ZM461.296 277.028C461.296 275.641 461.58 274.412 462.148 273.342C462.734 272.272 463.519 271.444 464.506 270.859C465.509 270.257 466.612 269.956 467.816 269.956C468.903 269.956 469.847 270.174 470.65 270.608C471.469 271.026 472.121 271.553 472.606 272.188V270.182H475.49V284H472.606V281.944C472.121 282.596 471.461 283.139 470.625 283.574C469.789 284.008 468.836 284.226 467.766 284.226C466.579 284.226 465.492 283.925 464.506 283.323C463.519 282.704 462.734 281.852 462.148 280.765C461.58 279.661 461.296 278.416 461.296 277.028ZM472.606 277.078C472.606 276.125 472.405 275.298 472.004 274.596C471.62 273.894 471.11 273.359 470.474 272.991C469.839 272.623 469.154 272.439 468.418 272.439C467.682 272.439 466.997 272.623 466.362 272.991C465.726 273.342 465.208 273.868 464.807 274.571C464.422 275.256 464.23 276.075 464.23 277.028C464.23 277.981 464.422 278.817 464.807 279.536C465.208 280.255 465.726 280.807 466.362 281.191C467.014 281.559 467.699 281.743 468.418 281.743C469.154 281.743 469.839 281.559 470.474 281.191C471.11 280.823 471.62 280.288 472.004 279.586C472.405 278.867 472.606 278.031 472.606 277.078ZM478.292 277.078C478.292 275.657 478.576 274.412 479.145 273.342C479.73 272.255 480.532 271.419 481.552 270.834C482.572 270.249 483.742 269.956 485.063 269.956C486.735 269.956 488.114 270.358 489.201 271.16C490.305 271.946 491.048 273.074 491.433 274.546H488.348C488.098 273.86 487.696 273.325 487.145 272.941C486.593 272.556 485.899 272.364 485.063 272.364C483.893 272.364 482.957 272.782 482.254 273.618C481.569 274.437 481.226 275.59 481.226 277.078C481.226 278.566 481.569 279.728 482.254 280.564C482.957 281.4 483.893 281.818 485.063 281.818C486.718 281.818 487.813 281.091 488.348 279.636H491.433C491.032 281.041 490.279 282.161 489.176 282.997C488.073 283.816 486.702 284.226 485.063 284.226C483.742 284.226 482.572 283.933 481.552 283.348C480.532 282.746 479.73 281.91 479.145 280.84C478.576 279.753 478.292 278.5 478.292 277.078ZM497.618 272.514V280.163C497.618 280.681 497.735 281.058 497.969 281.292C498.219 281.509 498.637 281.618 499.223 281.618H500.978V284H498.721C497.434 284 496.447 283.699 495.762 283.097C495.076 282.495 494.734 281.517 494.734 280.163V272.514H493.103V270.182H494.734V266.746H497.618V270.182H500.978V272.514H497.618Z" fill="white"/>
<path d="M137.883 380.515H149.525V387.375H128.996V350.89H137.883V380.515ZM151.997 372.823C151.997 369.843 152.552 367.227 153.66 364.975C154.804 362.723 156.346 360.99 158.286 359.778C160.226 358.565 162.392 357.958 164.783 357.958C166.827 357.958 168.611 358.374 170.136 359.206C171.695 360.037 172.89 361.129 173.722 362.48V358.374H182.609V387.375H173.722V383.269C172.856 384.62 171.643 385.712 170.084 386.543C168.559 387.375 166.775 387.791 164.731 387.791C162.374 387.791 160.226 387.184 158.286 385.972C156.346 384.724 154.804 382.975 153.66 380.723C152.552 378.436 151.997 375.802 151.997 372.823ZM173.722 372.875C173.722 370.657 173.098 368.907 171.851 367.625C170.638 366.343 169.148 365.702 167.381 365.702C165.614 365.702 164.107 366.343 162.86 367.625C161.647 368.873 161.04 370.605 161.04 372.823C161.04 375.04 161.647 376.807 162.86 378.124C164.107 379.406 165.614 380.047 167.381 380.047C169.148 380.047 170.638 379.406 171.851 378.124C173.098 376.842 173.722 375.092 173.722 372.875ZM197.926 363.208C198.966 361.614 200.265 360.367 201.824 359.466C203.383 358.53 205.116 358.062 207.021 358.062V367.469H204.579C202.361 367.469 200.698 367.955 199.589 368.925C198.48 369.86 197.926 371.523 197.926 373.914V387.375H189.039V358.374H197.926V363.208ZM209.502 372.823C209.502 369.843 210.057 367.227 211.165 364.975C212.309 362.723 213.851 360.99 215.791 359.778C217.731 358.565 219.897 357.958 222.287 357.958C224.332 357.958 226.116 358.374 227.641 359.206C229.2 360.037 230.395 361.129 231.227 362.48V358.374H240.114V387.375H231.227V383.269C230.361 384.62 229.148 385.712 227.589 386.543C226.064 387.375 224.28 387.791 222.235 387.791C219.879 387.791 217.731 387.184 215.791 385.972C213.851 384.724 212.309 382.975 211.165 380.723C210.057 378.436 209.502 375.802 209.502 372.823ZM231.227 372.875C231.227 370.657 230.603 368.907 229.356 367.625C228.143 366.343 226.653 365.702 224.886 365.702C223.119 365.702 221.612 366.343 220.364 367.625C219.152 368.873 218.545 370.605 218.545 372.823C218.545 375.04 219.152 376.807 220.364 378.124C221.612 379.406 223.119 380.047 224.886 380.047C226.653 380.047 228.143 379.406 229.356 378.124C230.603 376.842 231.227 375.092 231.227 372.875ZM259.589 379.059L265.877 358.374H275.336L265.046 387.375H254.08L243.789 358.374H253.3L259.589 379.059ZM306.415 372.407C306.415 373.238 306.363 374.105 306.259 375.006H286.146C286.284 376.807 286.856 378.193 287.861 379.163C288.9 380.099 290.165 380.567 291.655 380.567C293.872 380.567 295.414 379.631 296.28 377.76H305.739C305.254 379.666 304.371 381.381 303.089 382.905C301.841 384.43 300.265 385.625 298.359 386.491C296.453 387.358 294.323 387.791 291.967 387.791C289.125 387.791 286.596 387.184 284.378 385.972C282.161 384.759 280.429 383.027 279.181 380.774C277.934 378.522 277.31 375.889 277.31 372.875C277.31 369.86 277.917 367.227 279.129 364.975C280.377 362.723 282.109 360.99 284.327 359.778C286.544 358.565 289.091 357.958 291.967 357.958C294.773 357.958 297.268 358.548 299.451 359.726C301.633 360.904 303.331 362.584 304.544 364.767C305.791 366.95 306.415 369.496 306.415 372.407ZM297.32 370.068C297.32 368.544 296.8 367.331 295.761 366.43C294.721 365.529 293.422 365.079 291.863 365.079C290.373 365.079 289.108 365.512 288.069 366.378C287.064 367.244 286.44 368.474 286.198 370.068H297.32ZM319.991 348.915V387.375H311.103V348.915H319.991ZM346.332 358.01V365.391H358.234V372.251H346.332V380.255H359.793V387.375H337.445V350.89H359.793V358.01H346.332ZM382.714 387.375L377.153 379.319L372.475 387.375H362.86L372.423 372.563L362.601 358.374H372.579L378.14 366.378L382.818 358.374H392.433L382.714 372.979L392.693 387.375H382.714ZM394.35 372.823C394.35 369.843 394.905 367.227 396.013 364.975C397.157 362.723 398.699 360.99 400.639 359.778C402.579 358.565 404.745 357.958 407.135 357.958C409.18 357.958 410.964 358.374 412.489 359.206C414.048 360.037 415.243 361.129 416.075 362.48V358.374H424.962V387.375H416.075V383.269C415.209 384.62 413.996 385.712 412.437 386.543C410.912 387.375 409.128 387.791 407.083 387.791C404.727 387.791 402.579 387.184 400.639 385.972C398.699 384.724 397.157 382.975 396.013 380.723C394.905 378.436 394.35 375.802 394.35 372.823ZM416.075 372.875C416.075 370.657 415.451 368.907 414.204 367.625C412.991 366.343 411.501 365.702 409.734 365.702C407.967 365.702 406.46 366.343 405.212 367.625C404 368.873 403.393 370.605 403.393 372.823C403.393 375.04 404 376.807 405.212 378.124C406.46 379.406 407.967 380.047 409.734 380.047C411.501 380.047 412.991 379.406 414.204 378.124C415.451 376.842 416.075 375.092 416.075 372.875ZM429.625 372.875C429.625 369.86 430.231 367.227 431.444 364.975C432.691 362.723 434.406 360.99 436.589 359.778C438.806 358.565 441.336 357.958 444.177 357.958C447.815 357.958 450.847 358.911 453.272 360.817C455.732 362.723 457.343 365.408 458.106 368.873H448.647C447.85 366.655 446.308 365.546 444.021 365.546C442.393 365.546 441.093 366.187 440.123 367.469C439.153 368.717 438.668 370.519 438.668 372.875C438.668 375.231 439.153 377.05 440.123 378.332C441.093 379.579 442.393 380.203 444.021 380.203C446.308 380.203 447.85 379.094 448.647 376.877H458.106C457.343 380.272 455.732 382.94 453.272 384.88C450.812 386.821 447.78 387.791 444.177 387.791C441.336 387.791 438.806 387.184 436.589 385.972C434.406 384.759 432.691 383.027 431.444 380.774C430.231 378.522 429.625 375.889 429.625 372.875ZM479.023 379.839V387.375H474.501C471.279 387.375 468.767 386.595 466.965 385.036C465.164 383.442 464.263 380.861 464.263 377.292V365.754H460.729V358.374H464.263V351.306H473.15V358.374H478.971V365.754H473.15V377.396C473.15 378.262 473.358 378.886 473.774 379.267C474.19 379.648 474.882 379.839 475.853 379.839H479.023ZM493.48 369.081C493.48 365.477 494.259 362.272 495.819 359.466C497.378 356.625 499.543 354.424 502.315 352.865C505.122 351.271 508.292 350.474 511.826 350.474C516.157 350.474 519.865 351.618 522.948 353.905C526.032 356.191 528.094 359.31 529.133 363.26H519.362C518.635 361.735 517.595 360.574 516.244 359.778C514.927 358.981 513.42 358.582 511.722 358.582C508.985 358.582 506.768 359.535 505.07 361.441C503.372 363.346 502.523 365.893 502.523 369.081C502.523 372.268 503.372 374.815 505.07 376.721C506.768 378.626 508.985 379.579 511.722 379.579C513.42 379.579 514.927 379.181 516.244 378.384C517.595 377.587 518.635 376.426 519.362 374.902H529.133C528.094 378.851 526.032 381.97 522.948 384.257C519.865 386.509 516.157 387.635 511.826 387.635C508.292 387.635 505.122 386.855 502.315 385.296C499.543 383.702 497.378 381.502 495.819 378.696C494.259 375.889 493.48 372.684 493.48 369.081ZM543.463 348.915V387.375H534.576V348.915H543.463ZM554.373 355.36C552.814 355.36 551.532 354.909 550.527 354.009C549.557 353.073 549.072 351.93 549.072 350.578C549.072 349.192 549.557 348.049 550.527 347.148C551.532 346.213 552.814 345.745 554.373 345.745C555.898 345.745 557.145 346.213 558.115 347.148C559.12 348.049 559.622 349.192 559.622 350.578C559.622 351.93 559.12 353.073 558.115 354.009C557.145 354.909 555.898 355.36 554.373 355.36ZM558.791 358.374V387.375H549.904V358.374H558.791ZM592.569 372.407C592.569 373.238 592.517 374.105 592.413 375.006H572.3C572.438 376.807 573.01 378.193 574.015 379.163C575.054 380.099 576.319 380.567 577.809 380.567C580.026 380.567 581.568 379.631 582.434 377.76H591.893C591.408 379.666 590.525 381.381 589.243 382.905C587.995 384.43 586.419 385.625 584.513 386.491C582.608 387.358 580.477 387.791 578.121 387.791C575.279 387.791 572.75 387.184 570.533 385.972C568.315 384.759 566.583 383.027 565.335 380.774C564.088 378.522 563.464 375.889 563.464 372.875C563.464 369.86 564.071 367.227 565.283 364.975C566.531 362.723 568.263 360.99 570.481 359.778C572.698 358.565 575.245 357.958 578.121 357.958C580.927 357.958 583.422 358.548 585.605 359.726C587.788 360.904 589.485 362.584 590.698 364.767C591.945 366.95 592.569 369.496 592.569 372.407ZM583.474 370.068C583.474 368.544 582.954 367.331 581.915 366.43C580.875 365.529 579.576 365.079 578.017 365.079C576.527 365.079 575.262 365.512 574.223 366.378C573.218 367.244 572.594 368.474 572.352 370.068H583.474ZM614.928 358.062C618.324 358.062 621.026 359.171 623.036 361.389C625.08 363.572 626.102 366.586 626.102 370.432V387.375H617.267V371.627C617.267 369.687 616.765 368.18 615.76 367.106C614.755 366.032 613.404 365.495 611.706 365.495C610.008 365.495 608.657 366.032 607.652 367.106C606.647 368.18 606.145 369.687 606.145 371.627V387.375H597.258V358.374H606.145V362.22C607.046 360.938 608.258 359.933 609.783 359.206C611.307 358.444 613.023 358.062 614.928 358.062ZM648.442 379.839V387.375H643.92C640.698 387.375 638.186 386.595 636.384 385.036C634.582 383.442 633.681 380.861 633.681 377.292V365.754H630.147V358.374H633.681V351.306H642.569V358.374H648.39V365.754H642.569V377.396C642.569 378.262 642.777 378.886 643.192 379.267C643.608 379.648 644.301 379.839 645.271 379.839H648.442Z" fill="white"/>
<path d="M163.187 482.186C163.55 482.572 163.745 483.086 163.729 483.615C163.713 484.145 163.487 484.646 163.102 485.009L141.979 504.917C141.549 505.322 140.976 505.543 140.385 505.532C139.794 505.521 139.23 505.279 138.815 504.858L131.676 497.613C131.487 497.428 131.337 497.206 131.235 496.962C131.132 496.717 131.079 496.455 131.079 496.19C131.079 495.925 131.131 495.663 131.233 495.418C131.335 495.174 131.485 494.952 131.674 494.766C131.863 494.58 132.086 494.433 132.332 494.334C132.578 494.236 132.841 494.187 133.106 494.191C133.371 494.195 133.633 494.252 133.876 494.358C134.119 494.464 134.338 494.617 134.521 494.809L140.472 500.847L160.363 482.101C160.749 481.737 161.263 481.543 161.793 481.559C162.322 481.575 162.824 481.8 163.187 482.186Z" fill="white"/>
<path d="M198.752 484.134V491.642H206.936V494.059H198.752V501.792H207.903V504.209H195.819V481.717H207.903V484.134H198.752ZM211.244 495.315C211.244 493.511 211.61 491.932 212.34 490.579C213.07 489.204 214.069 488.14 215.337 487.389C216.626 486.637 218.054 486.261 219.622 486.261C221.169 486.261 222.512 486.594 223.65 487.26C224.789 487.926 225.637 488.763 226.196 489.773V486.551H229.16V504.209H226.196V500.922C225.616 501.953 224.746 502.813 223.586 503.5C222.447 504.166 221.115 504.499 219.59 504.499C218.022 504.499 216.604 504.112 215.337 503.339C214.069 502.566 213.07 501.481 212.34 500.084C211.61 498.688 211.244 497.098 211.244 495.315ZM226.196 495.348C226.196 494.016 225.927 492.856 225.39 491.868C224.853 490.879 224.123 490.128 223.199 489.612C222.297 489.075 221.298 488.806 220.202 488.806C219.107 488.806 218.108 489.064 217.206 489.58C216.303 490.095 215.584 490.847 215.047 491.835C214.51 492.824 214.241 493.984 214.241 495.315C214.241 496.669 214.51 497.85 215.047 498.86C215.584 499.848 216.303 500.611 217.206 501.148C218.108 501.663 219.107 501.921 220.202 501.921C221.298 501.921 222.297 501.663 223.199 501.148C224.123 500.611 224.853 499.848 225.39 498.86C225.927 497.85 226.196 496.68 226.196 495.348ZM240.367 504.499C239.014 504.499 237.8 504.273 236.726 503.822C235.652 503.35 234.803 502.705 234.18 501.889C233.557 501.051 233.214 500.095 233.149 499.021H236.178C236.264 499.902 236.672 500.621 237.403 501.18C238.154 501.739 239.132 502.018 240.335 502.018C241.452 502.018 242.333 501.771 242.977 501.277C243.622 500.783 243.944 500.16 243.944 499.408C243.944 498.634 243.6 498.065 242.913 497.7C242.225 497.313 241.162 496.937 239.723 496.572C238.412 496.228 237.338 495.885 236.5 495.541C235.684 495.176 234.975 494.649 234.374 493.962C233.794 493.253 233.504 492.329 233.504 491.191C233.504 490.289 233.772 489.462 234.309 488.71C234.846 487.958 235.609 487.367 236.597 486.937C237.585 486.486 238.713 486.261 239.98 486.261C241.935 486.261 243.514 486.755 244.717 487.743C245.92 488.731 246.565 490.085 246.651 491.803H243.718C243.654 490.879 243.278 490.138 242.59 489.58C241.924 489.021 241.022 488.742 239.884 488.742C238.831 488.742 237.993 488.967 237.37 489.419C236.747 489.87 236.436 490.46 236.436 491.191C236.436 491.771 236.618 492.254 236.984 492.641C237.37 493.006 237.843 493.307 238.401 493.543C238.981 493.758 239.776 494.005 240.786 494.284C242.053 494.628 243.085 494.972 243.879 495.315C244.674 495.638 245.351 496.132 245.909 496.798C246.489 497.464 246.79 498.334 246.812 499.408C246.812 500.374 246.543 501.244 246.006 502.018C245.469 502.791 244.706 503.403 243.718 503.855C242.752 504.284 241.634 504.499 240.367 504.499ZM266.16 486.551L255.527 512.523H252.498L255.978 504.016L248.857 486.551H252.111L257.653 500.858L263.131 486.551H266.16ZM276.603 495.315C276.603 493.511 276.968 491.932 277.699 490.579C278.429 489.204 279.428 488.14 280.695 487.389C281.984 486.637 283.413 486.261 284.981 486.261C286.528 486.261 287.87 486.594 289.009 487.26C290.148 487.926 290.996 488.763 291.555 489.773V486.551H294.519V504.209H291.555V500.922C290.975 501.953 290.105 502.813 288.945 503.5C287.806 504.166 286.474 504.499 284.949 504.499C283.381 504.499 281.963 504.112 280.695 503.339C279.428 502.566 278.429 501.481 277.699 500.084C276.968 498.688 276.603 497.098 276.603 495.315ZM291.555 495.348C291.555 494.016 291.286 492.856 290.749 491.868C290.212 490.879 289.482 490.128 288.558 489.612C287.656 489.075 286.657 488.806 285.561 488.806C284.466 488.806 283.467 489.064 282.564 489.58C281.662 490.095 280.942 490.847 280.405 491.835C279.868 492.824 279.6 493.984 279.6 495.315C279.6 496.669 279.868 497.85 280.405 498.86C280.942 499.848 281.662 500.611 282.564 501.148C283.467 501.663 284.466 501.921 285.561 501.921C286.657 501.921 287.656 501.663 288.558 501.148C289.482 500.611 290.212 499.848 290.749 498.86C291.286 497.85 291.555 496.68 291.555 495.348ZM315.135 486.551V504.209H312.203V501.599C311.644 502.501 310.86 503.21 309.85 503.726C308.862 504.22 307.766 504.467 306.563 504.467C305.189 504.467 303.953 504.188 302.858 503.629C301.762 503.049 300.892 502.19 300.248 501.051C299.625 499.913 299.313 498.527 299.313 496.894V486.551H302.213V496.508C302.213 498.248 302.654 499.59 303.535 500.536C304.415 501.459 305.618 501.921 307.144 501.921C308.712 501.921 309.947 501.438 310.849 500.471C311.751 499.504 312.203 498.097 312.203 496.25V486.551H315.135ZM323.663 488.967V499.376C323.663 500.235 323.845 500.847 324.21 501.212C324.576 501.556 325.209 501.728 326.112 501.728H328.27V504.209H325.628C323.996 504.209 322.771 503.833 321.955 503.081C321.138 502.329 320.73 501.094 320.73 499.376V488.967H318.442V486.551H320.73V482.104H323.663V486.551H328.27V488.967H323.663ZM340.588 486.229C341.92 486.229 343.123 486.519 344.197 487.099C345.271 487.657 346.109 488.506 346.71 489.644C347.333 490.783 347.645 492.168 347.645 493.801V504.209H344.745V494.22C344.745 492.458 344.304 491.116 343.424 490.192C342.543 489.247 341.34 488.774 339.815 488.774C338.268 488.774 337.033 489.257 336.109 490.224C335.207 491.191 334.756 492.598 334.756 494.445V504.209H331.823V480.364H334.756V489.064C335.336 488.162 336.13 487.464 337.14 486.97C338.171 486.476 339.321 486.229 340.588 486.229ZM368.546 494.703C368.546 495.262 368.514 495.852 368.45 496.475H354.336C354.443 498.215 355.034 499.58 356.108 500.568C357.204 501.534 358.525 502.018 360.072 502.018C361.339 502.018 362.392 501.728 363.229 501.148C364.089 500.546 364.69 499.751 365.034 498.763H368.192C367.719 500.46 366.774 501.846 365.356 502.92C363.938 503.973 362.177 504.499 360.072 504.499C358.396 504.499 356.892 504.123 355.56 503.371C354.25 502.619 353.219 501.556 352.467 500.181C351.715 498.785 351.339 497.174 351.339 495.348C351.339 493.522 351.704 491.921 352.435 490.546C353.165 489.172 354.186 488.119 355.496 487.389C356.828 486.637 358.353 486.261 360.072 486.261C361.747 486.261 363.229 486.626 364.518 487.356C365.807 488.087 366.795 489.096 367.483 490.385C368.192 491.653 368.546 493.092 368.546 494.703ZM365.517 494.091C365.517 492.974 365.27 492.018 364.776 491.223C364.282 490.407 363.605 489.795 362.746 489.386C361.908 488.957 360.974 488.742 359.943 488.742C358.46 488.742 357.193 489.215 356.14 490.16C355.109 491.105 354.519 492.415 354.368 494.091H365.517ZM381.02 486.229C383.169 486.229 384.909 486.884 386.241 488.194C387.572 489.483 388.238 491.352 388.238 493.801V504.209H385.338V494.22C385.338 492.458 384.898 491.116 384.017 490.192C383.136 489.247 381.933 488.774 380.408 488.774C378.861 488.774 377.626 489.257 376.702 490.224C375.8 491.191 375.349 492.598 375.349 494.445V504.209H372.417V486.551H375.349V489.064C375.929 488.162 376.713 487.464 377.701 486.97C378.711 486.476 379.817 486.229 381.02 486.229ZM396.605 488.967V499.376C396.605 500.235 396.788 500.847 397.153 501.212C397.518 501.556 398.152 501.728 399.054 501.728H401.213V504.209H398.571C396.938 504.209 395.714 503.833 394.897 503.081C394.081 502.329 393.673 501.094 393.673 499.376V488.967H391.385V486.551H393.673V482.104H396.605V486.551H401.213V488.967H396.605ZM406.28 483.683C405.722 483.683 405.249 483.49 404.862 483.103C404.476 482.716 404.282 482.244 404.282 481.685C404.282 481.127 404.476 480.654 404.862 480.267C405.249 479.881 405.722 479.687 406.28 479.687C406.817 479.687 407.268 479.881 407.634 480.267C408.02 480.654 408.214 481.127 408.214 481.685C408.214 482.244 408.02 482.716 407.634 483.103C407.268 483.49 406.817 483.683 406.28 483.683ZM407.698 486.551V504.209H404.766V486.551H407.698ZM411.6 495.348C411.6 493.522 411.965 491.932 412.696 490.579C413.426 489.204 414.436 488.14 415.725 487.389C417.035 486.637 418.528 486.261 420.204 486.261C422.373 486.261 424.156 486.787 425.553 487.84C426.97 488.892 427.905 490.353 428.356 492.222H425.198C424.897 491.148 424.307 490.299 423.426 489.676C422.567 489.053 421.493 488.742 420.204 488.742C418.528 488.742 417.175 489.322 416.144 490.482C415.112 491.621 414.597 493.242 414.597 495.348C414.597 497.474 415.112 499.118 416.144 500.278C417.175 501.438 418.528 502.018 420.204 502.018C421.493 502.018 422.567 501.717 423.426 501.116C424.285 500.514 424.876 499.655 425.198 498.538H428.356C427.883 500.342 426.938 501.792 425.52 502.888C424.103 503.962 422.33 504.499 420.204 504.499C418.528 504.499 417.035 504.123 415.725 503.371C414.436 502.619 413.426 501.556 412.696 500.181C411.965 498.806 411.6 497.195 411.6 495.348ZM431.173 495.315C431.173 493.511 431.538 491.932 432.269 490.579C432.999 489.204 433.998 488.14 435.265 487.389C436.554 486.637 437.983 486.261 439.551 486.261C441.098 486.261 442.44 486.594 443.579 487.26C444.717 487.926 445.566 488.763 446.125 489.773V486.551H449.089V504.209H446.125V500.922C445.545 501.953 444.674 502.813 443.514 503.5C442.376 504.166 441.044 504.499 439.519 504.499C437.951 504.499 436.533 504.112 435.265 503.339C433.998 502.566 432.999 501.481 432.269 500.084C431.538 498.688 431.173 497.098 431.173 495.315ZM446.125 495.348C446.125 494.016 445.856 492.856 445.319 491.868C444.782 490.879 444.052 490.128 443.128 489.612C442.226 489.075 441.227 488.806 440.131 488.806C439.035 488.806 438.037 489.064 437.134 489.58C436.232 490.095 435.512 490.847 434.975 491.835C434.438 492.824 434.17 493.984 434.17 495.315C434.17 496.669 434.438 497.85 434.975 498.86C435.512 499.848 436.232 500.611 437.134 501.148C438.037 501.663 439.035 501.921 440.131 501.921C441.227 501.921 442.226 501.663 443.128 501.148C444.052 500.611 444.782 499.848 445.319 498.86C445.856 497.85 446.125 496.68 446.125 495.348ZM457.621 488.967V499.376C457.621 500.235 457.804 500.847 458.169 501.212C458.534 501.556 459.168 501.728 460.07 501.728H462.229V504.209H459.587C457.954 504.209 456.73 503.833 455.913 503.081C455.097 502.329 454.689 501.094 454.689 499.376V488.967H452.401V486.551H454.689V482.104H457.621V486.551H462.229V488.967H457.621ZM467.296 483.683C466.738 483.683 466.265 483.49 465.879 483.103C465.492 482.716 465.298 482.244 465.298 481.685C465.298 481.127 465.492 480.654 465.879 480.267C466.265 479.881 466.738 479.687 467.296 479.687C467.833 479.687 468.284 479.881 468.65 480.267C469.036 480.654 469.23 481.127 469.23 481.685C469.23 482.244 469.036 482.716 468.65 483.103C468.284 483.49 467.833 483.683 467.296 483.683ZM468.714 486.551V504.209H465.782V486.551H468.714ZM481.413 504.499C479.759 504.499 478.255 504.123 476.902 503.371C475.57 502.619 474.517 501.556 473.744 500.181C472.992 498.785 472.616 497.174 472.616 495.348C472.616 493.543 473.003 491.953 473.776 490.579C474.571 489.182 475.645 488.119 476.998 487.389C478.352 486.637 479.866 486.261 481.542 486.261C483.218 486.261 484.732 486.637 486.085 487.389C487.439 488.119 488.502 489.172 489.275 490.546C490.07 491.921 490.468 493.522 490.468 495.348C490.468 497.174 490.06 498.785 489.243 500.181C488.448 501.556 487.364 502.619 485.989 503.371C484.614 504.123 483.089 504.499 481.413 504.499ZM481.413 501.921C482.466 501.921 483.454 501.674 484.378 501.18C485.301 500.686 486.042 499.945 486.601 498.957C487.181 497.968 487.471 496.765 487.471 495.348C487.471 493.93 487.192 492.727 486.633 491.739C486.075 490.75 485.344 490.02 484.442 489.547C483.54 489.053 482.562 488.806 481.51 488.806C480.436 488.806 479.447 489.053 478.545 489.547C477.664 490.02 476.956 490.75 476.418 491.739C475.881 492.727 475.613 493.93 475.613 495.348C475.613 496.787 475.871 498.001 476.386 498.989C476.923 499.977 477.632 500.718 478.513 501.212C479.394 501.685 480.36 501.921 481.413 501.921ZM502.927 486.229C505.075 486.229 506.815 486.884 508.147 488.194C509.479 489.483 510.145 491.352 510.145 493.801V504.209H507.245V494.22C507.245 492.458 506.804 491.116 505.923 490.192C505.043 489.247 503.84 488.774 502.314 488.774C500.768 488.774 499.533 489.257 498.609 490.224C497.707 491.191 497.255 492.598 497.255 494.445V504.209H494.323V486.551H497.255V489.064C497.835 488.162 498.62 487.464 499.608 486.97C500.617 486.476 501.724 486.229 502.927 486.229Z" fill="white"/>
<path d="M163.187 544.803C163.55 545.189 163.745 545.703 163.729 546.232C163.713 546.762 163.487 547.263 163.102 547.626L141.979 567.534C141.549 567.94 140.976 568.16 140.385 568.15C139.794 568.139 139.23 567.897 138.815 567.475L131.676 560.231C131.487 560.045 131.337 559.823 131.235 559.579C131.132 559.335 131.079 559.072 131.079 558.807C131.079 558.542 131.131 558.28 131.233 558.035C131.335 557.791 131.485 557.569 131.674 557.383C131.863 557.197 132.086 557.05 132.332 556.952C132.578 556.853 132.841 556.804 133.106 556.808C133.371 556.812 133.633 556.869 133.876 556.975C134.119 557.081 134.338 557.234 134.521 557.426L140.472 563.464L160.363 544.718C160.749 544.355 161.263 544.16 161.793 544.176C162.322 544.192 162.824 544.417 163.187 544.803Z" fill="white"/>
<path d="M207.13 544.367V560.962C207.13 562.809 206.56 564.291 205.422 565.408C204.283 566.504 202.78 567.052 200.911 567.052C199.02 567.052 197.506 566.493 196.367 565.376C195.229 564.238 194.659 562.691 194.659 560.736H197.592C197.613 561.832 197.892 562.723 198.429 563.411C198.988 564.098 199.815 564.442 200.911 564.442C202.006 564.442 202.823 564.119 203.36 563.475C203.897 562.809 204.165 561.971 204.165 560.962V544.367H207.13ZM220.608 567.116C218.954 567.116 217.45 566.74 216.097 565.988C214.765 565.237 213.712 564.173 212.939 562.798C212.187 561.402 211.811 559.791 211.811 557.965C211.811 556.16 212.198 554.571 212.971 553.196C213.766 551.799 214.84 550.736 216.193 550.006C217.547 549.254 219.061 548.878 220.737 548.878C222.412 548.878 223.927 549.254 225.28 550.006C226.633 550.736 227.697 551.789 228.47 553.164C229.265 554.538 229.662 556.139 229.662 557.965C229.662 559.791 229.254 561.402 228.438 562.798C227.643 564.173 226.558 565.237 225.183 565.988C223.809 566.74 222.283 567.116 220.608 567.116ZM220.608 564.538C221.66 564.538 222.649 564.291 223.572 563.797C224.496 563.303 225.237 562.562 225.796 561.574C226.376 560.586 226.666 559.383 226.666 557.965C226.666 556.547 226.386 555.344 225.828 554.356C225.269 553.368 224.539 552.637 223.637 552.165C222.734 551.671 221.757 551.424 220.704 551.424C219.63 551.424 218.642 551.671 217.74 552.165C216.859 552.637 216.15 553.368 215.613 554.356C215.076 555.344 214.808 556.547 214.808 557.965C214.808 559.404 215.065 560.618 215.581 561.606C216.118 562.594 216.827 563.335 217.708 563.829C218.588 564.302 219.555 564.538 220.608 564.538ZM236.45 552.455C237.052 551.402 237.932 550.543 239.092 549.877C240.252 549.211 241.574 548.878 243.056 548.878C244.646 548.878 246.074 549.254 247.342 550.006C248.609 550.758 249.608 551.821 250.338 553.196C251.069 554.549 251.434 556.128 251.434 557.933C251.434 559.716 251.069 561.305 250.338 562.702C249.608 564.098 248.598 565.183 247.309 565.956C246.042 566.73 244.624 567.116 243.056 567.116C241.531 567.116 240.188 566.783 239.028 566.117C237.889 565.451 237.03 564.603 236.45 563.572V566.826H233.518V542.981H236.45V552.455ZM248.437 557.933C248.437 556.601 248.169 555.441 247.632 554.453C247.095 553.464 246.364 552.712 245.44 552.197C244.538 551.681 243.539 551.424 242.444 551.424C241.37 551.424 240.371 551.692 239.447 552.229C238.545 552.745 237.814 553.507 237.256 554.517C236.719 555.505 236.45 556.654 236.45 557.965C236.45 559.297 236.719 560.467 237.256 561.477C237.814 562.465 238.545 563.228 239.447 563.765C240.371 564.281 241.37 564.538 242.444 564.538C243.539 564.538 244.538 564.281 245.44 563.765C246.364 563.228 247.095 562.465 247.632 561.477C248.169 560.467 248.437 559.286 248.437 557.933ZM285.119 548.846C286.494 548.846 287.719 549.136 288.793 549.716C289.867 550.274 290.715 551.123 291.338 552.261C291.961 553.4 292.273 554.785 292.273 556.418V566.826H289.373V556.837C289.373 555.076 288.932 553.733 288.052 552.809C287.192 551.864 286.022 551.391 284.539 551.391C283.014 551.391 281.8 551.885 280.898 552.874C279.996 553.84 279.545 555.247 279.545 557.095V566.826H276.645V556.837C276.645 555.076 276.204 553.733 275.324 552.809C274.464 551.864 273.293 551.391 271.811 551.391C270.286 551.391 269.072 551.885 268.17 552.874C267.268 553.84 266.817 555.247 266.817 557.095V566.826H263.884V549.168H266.817V551.714C267.397 550.79 268.17 550.081 269.137 549.587C270.125 549.093 271.21 548.846 272.391 548.846C273.873 548.846 275.184 549.179 276.322 549.845C277.461 550.511 278.31 551.488 278.868 552.777C279.362 551.531 280.178 550.564 281.317 549.877C282.456 549.189 283.723 548.846 285.119 548.846ZM298.597 546.3C298.039 546.3 297.566 546.107 297.18 545.72C296.793 545.333 296.6 544.861 296.6 544.302C296.6 543.744 296.793 543.271 297.18 542.884C297.566 542.498 298.039 542.304 298.597 542.304C299.134 542.304 299.586 542.498 299.951 542.884C300.337 543.271 300.531 543.744 300.531 544.302C300.531 544.861 300.337 545.333 299.951 545.72C299.586 546.107 299.134 546.3 298.597 546.3ZM300.015 549.168V566.826H297.083V549.168H300.015ZM303.917 557.933C303.917 556.128 304.282 554.549 305.013 553.196C305.743 551.821 306.742 550.758 308.01 550.006C309.298 549.254 310.738 548.878 312.327 548.878C313.702 548.878 314.98 549.2 316.162 549.845C317.343 550.468 318.246 551.295 318.869 552.326V542.981H321.833V566.826H318.869V563.507C318.289 564.56 317.429 565.43 316.291 566.117C315.152 566.783 313.82 567.116 312.295 567.116C310.727 567.116 309.298 566.73 308.01 565.956C306.742 565.183 305.743 564.098 305.013 562.702C304.282 561.305 303.917 559.716 303.917 557.933ZM318.869 557.965C318.869 556.633 318.6 555.473 318.063 554.485C317.526 553.497 316.796 552.745 315.872 552.229C314.97 551.692 313.971 551.424 312.875 551.424C311.78 551.424 310.781 551.681 309.878 552.197C308.976 552.712 308.257 553.464 307.719 554.453C307.182 555.441 306.914 556.601 306.914 557.933C306.914 559.286 307.182 560.467 307.719 561.477C308.257 562.465 308.976 563.228 309.878 563.765C310.781 564.281 311.78 564.538 312.875 564.538C313.971 564.538 314.97 564.281 315.872 563.765C316.796 563.228 317.526 562.465 318.063 561.477C318.6 560.467 318.869 559.297 318.869 557.965ZM325.693 557.933C325.693 556.128 326.058 554.549 326.788 553.196C327.519 551.821 328.518 550.758 329.785 550.006C331.074 549.254 332.513 548.878 334.103 548.878C335.478 548.878 336.756 549.2 337.938 549.845C339.119 550.468 340.021 551.295 340.644 552.326V542.981H343.609V566.826H340.644V563.507C340.064 564.56 339.205 565.43 338.067 566.117C336.928 566.783 335.596 567.116 334.071 567.116C332.503 567.116 331.074 566.73 329.785 565.956C328.518 565.183 327.519 564.098 326.788 562.702C326.058 561.305 325.693 559.716 325.693 557.933ZM340.644 557.965C340.644 556.633 340.376 555.473 339.839 554.485C339.302 553.497 338.571 552.745 337.648 552.229C336.745 551.692 335.746 551.424 334.651 551.424C333.555 551.424 332.556 551.681 331.654 552.197C330.752 552.712 330.032 553.464 329.495 554.453C328.958 555.441 328.69 556.601 328.69 557.933C328.69 559.286 328.958 560.467 329.495 561.477C330.032 562.465 330.752 563.228 331.654 563.765C332.556 564.281 333.555 564.538 334.651 564.538C335.746 564.538 336.745 564.281 337.648 563.765C338.571 563.228 339.302 562.465 339.839 561.477C340.376 560.467 340.644 559.297 340.644 557.965ZM351.497 542.981V566.826H348.564V542.981H351.497ZM372.606 557.32C372.606 557.879 372.573 558.47 372.509 559.093H358.395C358.503 560.833 359.093 562.197 360.168 563.185C361.263 564.152 362.584 564.635 364.131 564.635C365.398 564.635 366.451 564.345 367.289 563.765C368.148 563.163 368.75 562.369 369.093 561.38H372.251C371.779 563.078 370.833 564.463 369.416 565.537C367.998 566.59 366.236 567.116 364.131 567.116C362.455 567.116 360.952 566.74 359.62 565.988C358.309 565.237 357.278 564.173 356.526 562.798C355.774 561.402 355.399 559.791 355.399 557.965C355.399 556.139 355.764 554.538 356.494 553.164C357.225 551.789 358.245 550.736 359.555 550.006C360.887 549.254 362.412 548.878 364.131 548.878C365.807 548.878 367.289 549.243 368.578 549.974C369.867 550.704 370.855 551.714 371.542 553.002C372.251 554.27 372.606 555.709 372.606 557.32ZM369.577 556.708C369.577 555.591 369.33 554.635 368.836 553.84C368.341 553.024 367.665 552.412 366.805 552.004C365.968 551.574 365.033 551.359 364.002 551.359C362.52 551.359 361.252 551.832 360.2 552.777C359.169 553.722 358.578 555.033 358.427 556.708H369.577ZM399.999 549.168L394.489 566.826H391.46L387.206 552.809L382.953 566.826H379.924L374.382 549.168H377.378L381.439 563.991L385.821 549.168H388.818L393.103 564.023L397.099 549.168H399.999ZM401.814 557.933C401.814 556.128 402.179 554.549 402.909 553.196C403.64 551.821 404.638 550.758 405.906 550.006C407.195 549.254 408.623 548.878 410.192 548.878C411.738 548.878 413.081 549.211 414.219 549.877C415.358 550.543 416.207 551.381 416.765 552.39V549.168H419.73V566.826H416.765V563.539C416.185 564.571 415.315 565.43 414.155 566.117C413.016 566.783 411.685 567.116 410.159 567.116C408.591 567.116 407.173 566.73 405.906 565.956C404.638 565.183 403.64 564.098 402.909 562.702C402.179 561.305 401.814 559.716 401.814 557.933ZM416.765 557.965C416.765 556.633 416.497 555.473 415.959 554.485C415.422 553.497 414.692 552.745 413.768 552.229C412.866 551.692 411.867 551.424 410.772 551.424C409.676 551.424 408.677 551.681 407.775 552.197C406.873 552.712 406.153 553.464 405.616 554.453C405.079 555.441 404.81 556.601 404.81 557.933C404.81 559.286 405.079 560.467 405.616 561.477C406.153 562.465 406.873 563.228 407.775 563.765C408.677 564.281 409.676 564.538 410.772 564.538C411.867 564.538 412.866 564.281 413.768 563.765C414.692 563.228 415.422 562.465 415.959 561.477C416.497 560.467 416.765 559.297 416.765 557.965ZM427.617 552.036C428.133 551.026 428.863 550.242 429.808 549.684C430.775 549.125 431.946 548.846 433.321 548.846V551.875H432.547C429.261 551.875 427.617 553.658 427.617 557.224V566.826H424.685V549.168H427.617V552.036ZM452.817 557.32C452.817 557.879 452.785 558.47 452.72 559.093H438.607C438.714 560.833 439.305 562.197 440.379 563.185C441.475 564.152 442.796 564.635 444.342 564.635C445.61 564.635 446.662 564.345 447.5 563.765C448.36 563.163 448.961 562.369 449.305 561.38H452.463C451.99 563.078 451.045 564.463 449.627 565.537C448.209 566.59 446.448 567.116 444.342 567.116C442.667 567.116 441.163 566.74 439.831 565.988C438.521 565.237 437.49 564.173 436.738 562.798C435.986 561.402 435.61 559.791 435.61 557.965C435.61 556.139 435.975 554.538 436.706 553.164C437.436 551.789 438.456 550.736 439.767 550.006C441.099 549.254 442.624 548.878 444.342 548.878C446.018 548.878 447.5 549.243 448.789 549.974C450.078 550.704 451.066 551.714 451.754 553.002C452.463 554.27 452.817 555.709 452.817 557.32ZM449.788 556.708C449.788 555.591 449.541 554.635 449.047 553.84C448.553 553.024 447.876 552.412 447.017 552.004C446.179 551.574 445.245 551.359 444.214 551.359C442.731 551.359 441.464 551.832 440.411 552.777C439.38 553.722 438.789 555.033 438.639 556.708H449.788ZM472.464 551.585H468.758V566.826H465.826V551.585H463.538V549.168H465.826V547.911C465.826 545.935 466.331 544.496 467.341 543.593C468.372 542.67 470.015 542.208 472.271 542.208V544.657C470.982 544.657 470.069 544.915 469.532 545.43C469.016 545.924 468.758 546.751 468.758 547.911V549.168H472.464V551.585ZM483.584 567.116C481.93 567.116 480.426 566.74 479.073 565.988C477.741 565.237 476.689 564.173 475.915 562.798C475.163 561.402 474.787 559.791 474.787 557.965C474.787 556.16 475.174 554.571 475.947 553.196C476.742 551.799 477.816 550.736 479.17 550.006C480.523 549.254 482.038 548.878 483.713 548.878C485.389 548.878 486.903 549.254 488.257 550.006C489.61 550.736 490.673 551.789 491.447 553.164C492.242 554.538 492.639 556.139 492.639 557.965C492.639 559.791 492.231 561.402 491.415 562.798C490.62 564.173 489.535 565.237 488.16 565.988C486.785 566.74 485.26 567.116 483.584 567.116ZM483.584 564.538C484.637 564.538 485.625 564.291 486.549 563.797C487.473 563.303 488.214 562.562 488.772 561.574C489.352 560.586 489.642 559.383 489.642 557.965C489.642 556.547 489.363 555.344 488.804 554.356C488.246 553.368 487.516 552.637 486.613 552.165C485.711 551.671 484.734 551.424 483.681 551.424C482.607 551.424 481.619 551.671 480.716 552.165C479.836 552.637 479.127 553.368 478.59 554.356C478.053 555.344 477.784 556.547 477.784 557.965C477.784 559.404 478.042 560.618 478.558 561.606C479.095 562.594 479.803 563.335 480.684 563.829C481.565 564.302 482.532 564.538 483.584 564.538ZM499.427 552.036C499.942 551.026 500.673 550.242 501.618 549.684C502.585 549.125 503.755 548.846 505.13 548.846V551.875H504.357C501.07 551.875 499.427 553.658 499.427 557.224V566.826H496.494V549.168H499.427V552.036ZM520.038 552.036C520.554 551.026 521.284 550.242 522.229 549.684C523.196 549.125 524.367 548.846 525.742 548.846V551.875H524.968C521.682 551.875 520.038 553.658 520.038 557.224V566.826H517.106V549.168H520.038V552.036ZM528.031 557.933C528.031 556.128 528.396 554.549 529.127 553.196C529.857 551.821 530.856 550.758 532.123 550.006C533.412 549.254 534.841 548.878 536.409 548.878C537.956 548.878 539.298 549.211 540.437 549.877C541.575 550.543 542.424 551.381 542.982 552.39V549.168H545.947V566.826H542.982V563.539C542.402 564.571 541.532 565.43 540.372 566.117C539.234 566.783 537.902 567.116 536.377 567.116C534.809 567.116 533.391 566.73 532.123 565.956C530.856 565.183 529.857 564.098 529.127 562.702C528.396 561.305 528.031 559.716 528.031 557.933ZM542.982 557.965C542.982 556.633 542.714 555.473 542.177 554.485C541.64 553.497 540.909 552.745 539.986 552.229C539.083 551.692 538.085 551.424 536.989 551.424C535.893 551.424 534.894 551.681 533.992 552.197C533.09 552.712 532.37 553.464 531.833 554.453C531.296 555.441 531.028 556.601 531.028 557.933C531.028 559.286 531.296 560.467 531.833 561.477C532.37 562.465 533.09 563.228 533.992 563.765C534.894 564.281 535.893 564.538 536.989 564.538C538.085 564.538 539.083 564.281 539.986 563.765C540.909 563.228 541.64 562.465 542.177 561.477C542.714 560.467 542.982 559.297 542.982 557.965ZM554.479 551.585V561.993C554.479 562.852 554.662 563.464 555.027 563.829C555.392 564.173 556.026 564.345 556.928 564.345H559.087V566.826H556.445C554.812 566.826 553.588 566.45 552.771 565.698C551.955 564.946 551.547 563.711 551.547 561.993V551.585H549.259V549.168H551.547V544.721H554.479V549.168H559.087V551.585H554.479ZM578.751 557.32C578.751 557.879 578.719 558.47 578.655 559.093H564.541C564.648 560.833 565.239 562.197 566.313 563.185C567.409 564.152 568.73 564.635 570.277 564.635C571.544 564.635 572.597 564.345 573.434 563.765C574.294 563.163 574.895 562.369 575.239 561.38H578.397C577.924 563.078 576.979 564.463 575.561 565.537C574.143 566.59 572.382 567.116 570.277 567.116C568.601 567.116 567.097 566.74 565.765 565.988C564.455 565.237 563.424 564.173 562.672 562.798C561.92 561.402 561.544 559.791 561.544 557.965C561.544 556.139 561.909 554.538 562.64 553.164C563.37 551.789 564.391 550.736 565.701 550.006C567.033 549.254 568.558 548.878 570.277 548.878C571.952 548.878 573.434 549.243 574.723 549.974C576.012 550.704 577.001 551.714 577.688 553.002C578.397 554.27 578.751 555.709 578.751 557.32ZM575.722 556.708C575.722 555.591 575.475 554.635 574.981 553.84C574.487 553.024 573.81 552.412 572.951 552.004C572.113 551.574 571.179 551.359 570.148 551.359C568.665 551.359 567.398 551.832 566.345 552.777C565.314 553.722 564.724 555.033 564.573 556.708H575.722ZM594.145 542.981V566.826H591.213V542.981H594.145ZM600.657 546.3C600.098 546.3 599.626 546.107 599.239 545.72C598.852 545.333 598.659 544.861 598.659 544.302C598.659 543.744 598.852 543.271 599.239 542.884C599.626 542.498 600.098 542.304 600.657 542.304C601.194 542.304 601.645 542.498 602.01 542.884C602.397 543.271 602.59 543.744 602.59 544.302C602.59 544.861 602.397 545.333 602.01 545.72C601.645 546.107 601.194 546.3 600.657 546.3ZM602.075 549.168V566.826H599.142V549.168H602.075ZM628.307 548.846C629.682 548.846 630.907 549.136 631.981 549.716C633.055 550.274 633.903 551.123 634.526 552.261C635.149 553.4 635.461 554.785 635.461 556.418V566.826H632.561V556.837C632.561 555.076 632.12 553.733 631.24 552.809C630.38 551.864 629.21 551.391 627.727 551.391C626.202 551.391 624.988 551.885 624.086 552.874C623.184 553.84 622.733 555.247 622.733 557.095V566.826H619.833V556.837C619.833 555.076 619.392 553.733 618.512 552.809C617.652 551.864 616.481 551.391 614.999 551.391C613.474 551.391 612.26 551.885 611.358 552.874C610.456 553.84 610.005 555.247 610.005 557.095V566.826H607.072V549.168H610.005V551.714C610.585 550.79 611.358 550.081 612.325 549.587C613.313 549.093 614.398 548.846 615.579 548.846C617.061 548.846 618.372 549.179 619.51 549.845C620.649 550.511 621.498 551.488 622.056 552.777C622.55 551.531 623.366 550.564 624.505 549.877C625.644 549.189 626.911 548.846 628.307 548.846ZM641.785 546.3C641.227 546.3 640.754 546.107 640.368 545.72C639.981 545.333 639.788 544.861 639.788 544.302C639.788 543.744 639.981 543.271 640.368 542.884C640.754 542.498 641.227 542.304 641.785 542.304C642.322 542.304 642.774 542.498 643.139 542.884C643.525 543.271 643.719 543.744 643.719 544.302C643.719 544.861 643.525 545.333 643.139 545.72C642.774 546.107 642.322 546.3 641.785 546.3ZM643.203 549.168V566.826H640.271V549.168H643.203ZM651.778 551.585V561.993C651.778 562.852 651.96 563.464 652.325 563.829C652.691 564.173 653.324 564.345 654.226 564.345H656.385V566.826H653.743C652.111 566.826 650.886 566.45 650.07 565.698C649.253 564.946 648.845 563.711 648.845 561.993V551.585H646.557V549.168H648.845V544.721H651.778V549.168H656.385V551.585H651.778ZM666.19 567.116C664.836 567.116 663.622 566.891 662.548 566.439C661.474 565.967 660.626 565.322 660.003 564.506C659.38 563.668 659.036 562.712 658.972 561.638H662.001C662.086 562.519 662.495 563.239 663.225 563.797C663.977 564.356 664.954 564.635 666.157 564.635C667.274 564.635 668.155 564.388 668.8 563.894C669.444 563.4 669.766 562.777 669.766 562.025C669.766 561.252 669.423 560.682 668.735 560.317C668.048 559.93 666.984 559.555 665.545 559.189C664.235 558.846 663.161 558.502 662.323 558.158C661.506 557.793 660.798 557.267 660.196 556.579C659.616 555.87 659.326 554.947 659.326 553.808C659.326 552.906 659.595 552.079 660.132 551.327C660.669 550.575 661.431 549.984 662.419 549.555C663.408 549.103 664.535 548.878 665.803 548.878C667.758 548.878 669.337 549.372 670.54 550.36C671.743 551.348 672.387 552.702 672.473 554.42H669.541C669.476 553.497 669.1 552.755 668.413 552.197C667.747 551.638 666.845 551.359 665.706 551.359C664.654 551.359 663.816 551.585 663.193 552.036C662.57 552.487 662.258 553.078 662.258 553.808C662.258 554.388 662.441 554.871 662.806 555.258C663.193 555.623 663.665 555.924 664.224 556.16C664.804 556.375 665.599 556.622 666.608 556.901C667.876 557.245 668.907 557.589 669.702 557.933C670.497 558.255 671.173 558.749 671.732 559.415C672.312 560.081 672.613 560.951 672.634 562.025C672.634 562.992 672.366 563.862 671.829 564.635C671.292 565.408 670.529 566.021 669.541 566.472C668.574 566.901 667.457 567.116 666.19 567.116Z" fill="white"/>
<path d="M163.187 607.421C163.55 607.807 163.745 608.321 163.729 608.85C163.713 609.38 163.487 609.881 163.102 610.245L141.979 630.152C141.549 630.558 140.976 630.779 140.385 630.768C139.794 630.757 139.23 630.515 138.815 630.094L131.676 622.849C131.487 622.663 131.337 622.441 131.235 622.197C131.132 621.953 131.079 621.69 131.079 621.425C131.079 621.16 131.131 620.898 131.233 620.653C131.335 620.409 131.485 620.187 131.674 620.001C131.863 619.815 132.086 619.668 132.332 619.57C132.578 619.471 132.841 619.422 133.106 619.426C133.371 619.43 133.633 619.487 133.876 619.593C134.119 619.699 134.338 619.852 134.521 620.044L140.472 626.082L160.363 607.336C160.749 606.973 161.263 606.778 161.793 606.794C162.322 606.81 162.824 607.035 163.187 607.421Z" fill="white"/>
<path d="M202.941 629.67C201.458 629.67 200.127 629.412 198.945 628.897C197.785 628.359 196.872 627.629 196.206 626.705C195.54 625.76 195.196 624.675 195.175 623.451H198.301C198.408 624.503 198.838 625.395 199.59 626.125C200.363 626.834 201.48 627.189 202.941 627.189C204.337 627.189 205.433 626.845 206.227 626.158C207.044 625.449 207.452 624.546 207.452 623.451C207.452 622.592 207.216 621.893 206.743 621.356C206.27 620.819 205.68 620.411 204.971 620.132C204.262 619.853 203.306 619.552 202.103 619.23C200.621 618.843 199.428 618.456 198.526 618.07C197.645 617.683 196.883 617.081 196.238 616.265C195.615 615.427 195.304 614.31 195.304 612.914C195.304 611.689 195.615 610.605 196.238 609.659C196.861 608.714 197.731 607.984 198.848 607.468C199.987 606.953 201.287 606.695 202.747 606.695C204.853 606.695 206.571 607.221 207.903 608.274C209.256 609.326 210.019 610.723 210.191 612.463H206.969C206.861 611.604 206.41 610.852 205.615 610.207C204.82 609.541 203.768 609.208 202.457 609.208C201.233 609.208 200.234 609.53 199.461 610.175C198.687 610.798 198.301 611.679 198.301 612.817C198.301 613.634 198.526 614.3 198.977 614.815C199.45 615.331 200.019 615.728 200.685 616.007C201.373 616.265 202.328 616.566 203.553 616.91C205.035 617.318 206.227 617.726 207.13 618.134C208.032 618.521 208.805 619.133 209.45 619.971C210.094 620.787 210.416 621.904 210.416 623.322C210.416 624.418 210.126 625.449 209.546 626.415C208.966 627.382 208.107 628.166 206.969 628.768C205.83 629.369 204.487 629.67 202.941 629.67ZM230.392 611.786V629.444H227.46V626.834C226.901 627.737 226.117 628.445 225.107 628.961C224.119 629.455 223.024 629.702 221.821 629.702C220.446 629.702 219.211 629.423 218.115 628.864C217.019 628.284 216.149 627.425 215.505 626.286C214.882 625.148 214.57 623.762 214.57 622.13V611.786H217.471V621.743C217.471 623.483 217.911 624.826 218.792 625.771C219.672 626.695 220.875 627.156 222.401 627.156C223.969 627.156 225.204 626.673 226.106 625.706C227.009 624.74 227.46 623.333 227.46 621.485V611.786H230.392ZM238.275 615.041C238.855 614.031 239.715 613.193 240.853 612.527C242.013 611.84 243.356 611.496 244.881 611.496C246.449 611.496 247.867 611.872 249.134 612.624C250.423 613.376 251.433 614.439 252.163 615.814C252.894 617.167 253.259 618.746 253.259 620.551C253.259 622.334 252.894 623.923 252.163 625.32C251.433 626.716 250.423 627.801 249.134 628.574C247.867 629.348 246.449 629.734 244.881 629.734C243.377 629.734 242.045 629.401 240.885 628.735C239.747 628.048 238.877 627.199 238.275 626.19V637.822H235.343V611.786H238.275V615.041ZM250.262 620.551C250.262 619.219 249.994 618.059 249.457 617.071C248.92 616.083 248.189 615.331 247.266 614.815C246.363 614.3 245.364 614.042 244.269 614.042C243.195 614.042 242.196 614.31 241.272 614.847C240.37 615.363 239.639 616.125 239.081 617.135C238.544 618.123 238.275 619.273 238.275 620.583C238.275 621.915 238.544 623.086 239.081 624.095C239.639 625.083 240.37 625.846 241.272 626.383C242.196 626.899 243.195 627.156 244.269 627.156C245.364 627.156 246.363 626.899 247.266 626.383C248.189 625.846 248.92 625.083 249.457 624.095C249.994 623.086 250.262 621.904 250.262 620.551ZM260.051 615.041C260.631 614.031 261.49 613.193 262.629 612.527C263.789 611.84 265.132 611.496 266.657 611.496C268.225 611.496 269.643 611.872 270.91 612.624C272.199 613.376 273.209 614.439 273.939 615.814C274.67 617.167 275.035 618.746 275.035 620.551C275.035 622.334 274.67 623.923 273.939 625.32C273.209 626.716 272.199 627.801 270.91 628.574C269.643 629.348 268.225 629.734 266.657 629.734C265.153 629.734 263.821 629.401 262.661 628.735C261.523 628.048 260.653 627.199 260.051 626.19V637.822H257.119V611.786H260.051V615.041ZM272.038 620.551C272.038 619.219 271.769 618.059 271.232 617.071C270.695 616.083 269.965 615.331 269.041 614.815C268.139 614.3 267.14 614.042 266.045 614.042C264.97 614.042 263.972 614.31 263.048 614.847C262.146 615.363 261.415 616.125 260.857 617.135C260.32 618.123 260.051 619.273 260.051 620.583C260.051 621.915 260.32 623.086 260.857 624.095C261.415 625.083 262.146 625.846 263.048 626.383C263.972 626.899 264.97 627.156 266.045 627.156C267.14 627.156 268.139 626.899 269.041 626.383C269.965 625.846 270.695 625.083 271.232 624.095C271.769 623.086 272.038 621.904 272.038 620.551ZM286.596 629.734C284.942 629.734 283.438 629.358 282.085 628.607C280.753 627.855 279.7 626.791 278.927 625.416C278.175 624.02 277.799 622.409 277.799 620.583C277.799 618.779 278.186 617.189 278.959 615.814C279.754 614.418 280.828 613.354 282.181 612.624C283.535 611.872 285.049 611.496 286.725 611.496C288.4 611.496 289.915 611.872 291.268 612.624C292.621 613.354 293.685 614.407 294.458 615.782C295.253 617.157 295.65 618.757 295.65 620.583C295.65 622.409 295.242 624.02 294.426 625.416C293.631 626.791 292.546 627.855 291.171 628.607C289.797 629.358 288.271 629.734 286.596 629.734ZM286.596 627.156C287.648 627.156 288.637 626.909 289.56 626.415C290.484 625.921 291.225 625.18 291.784 624.192C292.364 623.204 292.654 622.001 292.654 620.583C292.654 619.165 292.374 617.962 291.816 616.974C291.257 615.986 290.527 615.255 289.625 614.783C288.723 614.289 287.745 614.042 286.692 614.042C285.618 614.042 284.63 614.289 283.728 614.783C282.847 615.255 282.138 615.986 281.601 616.974C281.064 617.962 280.796 619.165 280.796 620.583C280.796 622.022 281.053 623.236 281.569 624.224C282.106 625.212 282.815 625.954 283.696 626.448C284.576 626.92 285.543 627.156 286.596 627.156ZM302.438 614.654C302.954 613.644 303.684 612.86 304.629 612.302C305.596 611.743 306.767 611.464 308.142 611.464V614.493H307.368C304.082 614.493 302.438 616.276 302.438 619.842V629.444H299.506V611.786H302.438V614.654ZM315.103 614.203V624.611C315.103 625.47 315.286 626.082 315.651 626.448C316.016 626.791 316.65 626.963 317.552 626.963H319.711V629.444H317.069C315.436 629.444 314.212 629.068 313.396 628.317C312.579 627.565 312.171 626.329 312.171 624.611V614.203H309.883V611.786H312.171V607.339H315.103V611.786H319.711V614.203H315.103ZM339.041 614.203H335.335V629.444H332.403V614.203H330.115V611.786H332.403V610.529C332.403 608.553 332.907 607.114 333.917 606.212C334.948 605.288 336.592 604.826 338.847 604.826V607.275C337.558 607.275 336.645 607.533 336.108 608.048C335.593 608.542 335.335 609.369 335.335 610.529V611.786H339.041V614.203ZM350.161 629.734C348.507 629.734 347.003 629.358 345.65 628.607C344.318 627.855 343.265 626.791 342.492 625.416C341.74 624.02 341.364 622.409 341.364 620.583C341.364 618.779 341.751 617.189 342.524 615.814C343.319 614.418 344.393 613.354 345.746 612.624C347.1 611.872 348.614 611.496 350.29 611.496C351.965 611.496 353.48 611.872 354.833 612.624C356.186 613.354 357.25 614.407 358.023 615.782C358.818 617.157 359.215 618.757 359.215 620.583C359.215 622.409 358.807 624.02 357.991 625.416C357.196 626.791 356.111 627.855 354.736 628.607C353.362 629.358 351.836 629.734 350.161 629.734ZM350.161 627.156C351.213 627.156 352.202 626.909 353.125 626.415C354.049 625.921 354.79 625.18 355.349 624.192C355.929 623.204 356.219 622.001 356.219 620.583C356.219 619.165 355.939 617.962 355.381 616.974C354.822 615.986 354.092 615.255 353.19 614.783C352.287 614.289 351.31 614.042 350.257 614.042C349.183 614.042 348.195 614.289 347.293 614.783C346.412 615.255 345.703 615.986 345.166 616.974C344.629 617.962 344.361 619.165 344.361 620.583C344.361 622.022 344.618 623.236 345.134 624.224C345.671 625.212 346.38 625.954 347.261 626.448C348.141 626.92 349.108 627.156 350.161 627.156ZM366.003 614.654C366.519 613.644 367.249 612.86 368.194 612.302C369.161 611.743 370.332 611.464 371.707 611.464V614.493H370.933C367.647 614.493 366.003 616.276 366.003 619.842V629.444H363.071V611.786H366.003V614.654ZM404.917 611.464C406.292 611.464 407.517 611.754 408.591 612.334C409.665 612.892 410.513 613.741 411.136 614.88C411.759 616.018 412.071 617.404 412.071 619.036V629.444H409.171V619.455C409.171 617.694 408.73 616.351 407.85 615.427C406.99 614.482 405.82 614.009 404.337 614.009C402.812 614.009 401.598 614.504 400.696 615.492C399.794 616.458 399.343 617.866 399.343 619.713V629.444H396.443V619.455C396.443 617.694 396.002 616.351 395.121 615.427C394.262 614.482 393.091 614.009 391.609 614.009C390.084 614.009 388.87 614.504 387.968 615.492C387.066 616.458 386.615 617.866 386.615 619.713V629.444H383.682V611.786H386.615V614.332C387.195 613.408 387.968 612.699 388.935 612.205C389.923 611.711 391.008 611.464 392.189 611.464C393.671 611.464 394.982 611.797 396.12 612.463C397.259 613.129 398.107 614.106 398.666 615.395C399.16 614.149 399.976 613.182 401.115 612.495C402.254 611.808 403.521 611.464 404.917 611.464ZM432.541 611.786V629.444H429.609V626.834C429.05 627.737 428.266 628.445 427.257 628.961C426.268 629.455 425.173 629.702 423.97 629.702C422.595 629.702 421.36 629.423 420.264 628.864C419.169 628.284 418.299 627.425 417.654 626.286C417.031 625.148 416.72 623.762 416.72 622.13V611.786H419.62V621.743C419.62 623.483 420.06 624.826 420.941 625.771C421.822 626.695 423.025 627.156 424.55 627.156C426.118 627.156 427.353 626.673 428.256 625.706C429.158 624.74 429.609 623.333 429.609 621.485V611.786H432.541ZM440.425 605.599V629.444H437.492V605.599H440.425ZM448.999 614.203V624.611C448.999 625.47 449.182 626.082 449.547 626.448C449.912 626.791 450.546 626.963 451.448 626.963H453.607V629.444H450.965C449.332 629.444 448.107 629.068 447.291 628.317C446.475 627.565 446.067 626.329 446.067 624.611V614.203H443.779V611.786H446.067V607.339H448.999V611.786H453.607V614.203H448.999ZM458.674 608.918C458.116 608.918 457.643 608.725 457.256 608.338C456.87 607.952 456.676 607.479 456.676 606.92C456.676 606.362 456.87 605.889 457.256 605.503C457.643 605.116 458.116 604.923 458.674 604.923C459.211 604.923 459.662 605.116 460.027 605.503C460.414 605.889 460.608 606.362 460.608 606.92C460.608 607.479 460.414 607.952 460.027 608.338C459.662 608.725 459.211 608.918 458.674 608.918ZM460.092 611.786V629.444H457.16V611.786H460.092ZM468.022 615.041C468.602 614.031 469.461 613.193 470.6 612.527C471.76 611.84 473.102 611.496 474.628 611.496C476.196 611.496 477.614 611.872 478.881 612.624C480.17 613.376 481.18 614.439 481.91 615.814C482.64 617.167 483.006 618.746 483.006 620.551C483.006 622.334 482.64 623.923 481.91 625.32C481.18 626.716 480.17 627.801 478.881 628.574C477.614 629.348 476.196 629.734 474.628 629.734C473.124 629.734 471.792 629.401 470.632 628.735C469.493 628.048 468.623 627.199 468.022 626.19V637.822H465.09V611.786H468.022V615.041ZM480.009 620.551C480.009 619.219 479.74 618.059 479.203 617.071C478.666 616.083 477.936 615.331 477.012 614.815C476.11 614.3 475.111 614.042 474.015 614.042C472.941 614.042 471.942 614.31 471.019 614.847C470.116 615.363 469.386 616.125 468.827 617.135C468.29 618.123 468.022 619.273 468.022 620.583C468.022 621.915 468.29 623.086 468.827 624.095C469.386 625.083 470.116 625.846 471.019 626.383C471.942 626.899 472.941 627.156 474.015 627.156C475.111 627.156 476.11 626.899 477.012 626.383C477.936 625.846 478.666 625.083 479.203 624.095C479.74 623.086 480.009 621.904 480.009 620.551ZM489.798 605.599V629.444H486.865V605.599H489.798ZM510.907 619.939C510.907 620.497 510.874 621.088 510.81 621.711H496.696C496.804 623.451 497.394 624.815 498.469 625.803C499.564 626.77 500.885 627.253 502.432 627.253C503.699 627.253 504.752 626.963 505.59 626.383C506.449 625.782 507.051 624.987 507.394 623.999H510.552C510.08 625.696 509.134 627.081 507.717 628.155C506.299 629.208 504.537 629.734 502.432 629.734C500.756 629.734 499.253 629.358 497.921 628.607C496.61 627.855 495.579 626.791 494.827 625.416C494.076 624.02 493.7 622.409 493.7 620.583C493.7 618.757 494.065 617.157 494.795 615.782C495.526 614.407 496.546 613.354 497.856 612.624C499.188 611.872 500.713 611.496 502.432 611.496C504.108 611.496 505.59 611.861 506.879 612.592C508.168 613.322 509.156 614.332 509.843 615.621C510.552 616.888 510.907 618.327 510.907 619.939ZM507.878 619.326C507.878 618.209 507.631 617.253 507.137 616.458C506.643 615.642 505.966 615.03 505.107 614.622C504.269 614.192 503.334 613.977 502.303 613.977C500.821 613.977 499.553 614.45 498.501 615.395C497.47 616.34 496.879 617.651 496.729 619.326H507.878ZM522.272 620.583C522.272 618.757 522.638 617.167 523.368 615.814C524.098 614.439 525.108 613.376 526.397 612.624C527.707 611.872 529.2 611.496 530.876 611.496C533.046 611.496 534.829 612.022 536.225 613.075C537.643 614.128 538.577 615.588 539.028 617.457H535.87C535.57 616.383 534.979 615.535 534.098 614.912C533.239 614.289 532.165 613.977 530.876 613.977C529.2 613.977 527.847 614.557 526.816 615.717C525.785 616.856 525.269 618.478 525.269 620.583C525.269 622.71 525.785 624.353 526.816 625.513C527.847 626.673 529.2 627.253 530.876 627.253C532.165 627.253 533.239 626.952 534.098 626.351C534.958 625.749 535.548 624.89 535.87 623.773H539.028C538.556 625.578 537.611 627.028 536.193 628.123C534.775 629.197 533.003 629.734 530.876 629.734C529.2 629.734 527.707 629.358 526.397 628.607C525.108 627.855 524.098 626.791 523.368 625.416C522.638 624.042 522.272 622.43 522.272 620.583ZM550.642 629.734C548.988 629.734 547.484 629.358 546.131 628.607C544.799 627.855 543.746 626.791 542.973 625.416C542.221 624.02 541.845 622.409 541.845 620.583C541.845 618.779 542.232 617.189 543.005 615.814C543.8 614.418 544.874 613.354 546.228 612.624C547.581 611.872 549.096 611.496 550.771 611.496C552.447 611.496 553.961 611.872 555.315 612.624C556.668 613.354 557.731 614.407 558.505 615.782C559.299 617.157 559.697 618.757 559.697 620.583C559.697 622.409 559.289 624.02 558.472 625.416C557.678 626.791 556.593 627.855 555.218 628.607C553.843 629.358 552.318 629.734 550.642 629.734ZM550.642 627.156C551.695 627.156 552.683 626.909 553.607 626.415C554.53 625.921 555.272 625.18 555.83 624.192C556.41 623.204 556.7 622.001 556.7 620.583C556.7 619.165 556.421 617.962 555.862 616.974C555.304 615.986 554.573 615.255 553.671 614.783C552.769 614.289 551.792 614.042 550.739 614.042C549.665 614.042 548.677 614.289 547.774 614.783C546.894 615.255 546.185 615.986 545.648 616.974C545.111 617.962 544.842 619.165 544.842 620.583C544.842 622.022 545.1 623.236 545.615 624.224C546.152 625.212 546.861 625.954 547.742 626.448C548.623 626.92 549.59 627.156 550.642 627.156ZM572.156 611.464C574.304 611.464 576.044 612.119 577.376 613.429C578.708 614.718 579.374 616.587 579.374 619.036V629.444H576.474V619.455C576.474 617.694 576.033 616.351 575.153 615.427C574.272 614.482 573.069 614.009 571.544 614.009C569.997 614.009 568.762 614.493 567.838 615.46C566.936 616.426 566.485 617.833 566.485 619.681V629.444H563.552V611.786H566.485V614.3C567.065 613.397 567.849 612.699 568.837 612.205C569.847 611.711 570.953 611.464 572.156 611.464ZM592.767 611.464C594.916 611.464 596.656 612.119 597.987 613.429C599.319 614.718 599.985 616.587 599.985 619.036V629.444H597.085V619.455C597.085 617.694 596.645 616.351 595.764 615.427C594.883 614.482 593.68 614.009 592.155 614.009C590.608 614.009 589.373 614.493 588.449 615.46C587.547 616.426 587.096 617.833 587.096 619.681V629.444H584.164V611.786H587.096V614.3C587.676 613.397 588.46 612.699 589.448 612.205C590.458 611.711 591.564 611.464 592.767 611.464ZM620.887 619.939C620.887 620.497 620.854 621.088 620.79 621.711H606.676C606.784 623.451 607.375 624.815 608.449 625.803C609.544 626.77 610.865 627.253 612.412 627.253C613.679 627.253 614.732 626.963 615.57 626.383C616.429 625.782 617.031 624.987 617.374 623.999H620.532C620.06 625.696 619.114 627.081 617.697 628.155C616.279 629.208 614.517 629.734 612.412 629.734C610.736 629.734 609.233 629.358 607.901 628.607C606.59 627.855 605.559 626.791 604.807 625.416C604.056 624.02 603.68 622.409 603.68 620.583C603.68 618.757 604.045 617.157 604.775 615.782C605.506 614.407 606.526 613.354 607.836 612.624C609.168 611.872 610.693 611.496 612.412 611.496C614.088 611.496 615.57 611.861 616.859 612.592C618.148 613.322 619.136 614.332 619.823 615.621C620.532 616.888 620.887 618.327 620.887 619.939ZM617.858 619.326C617.858 618.209 617.611 617.253 617.117 616.458C616.623 615.642 615.946 615.03 615.087 614.622C614.249 614.192 613.314 613.977 612.283 613.977C610.801 613.977 609.533 614.45 608.481 615.395C607.45 616.34 606.859 617.651 606.709 619.326H617.858ZM623.662 620.583C623.662 618.757 624.027 617.167 624.757 615.814C625.488 614.439 626.497 613.376 627.786 612.624C629.097 611.872 630.59 611.496 632.265 611.496C634.435 611.496 636.218 612.022 637.614 613.075C639.032 614.128 639.967 615.588 640.418 617.457H637.26C636.959 616.383 636.368 615.535 635.488 614.912C634.628 614.289 633.554 613.977 632.265 613.977C630.59 613.977 629.236 614.557 628.205 615.717C627.174 616.856 626.658 618.478 626.658 620.583C626.658 622.71 627.174 624.353 628.205 625.513C629.236 626.673 630.59 627.253 632.265 627.253C633.554 627.253 634.628 626.952 635.488 626.351C636.347 625.749 636.938 624.89 637.26 623.773H640.418C639.945 625.578 639 627.028 637.582 628.123C636.164 629.197 634.392 629.734 632.265 629.734C630.59 629.734 629.097 629.358 627.786 628.607C626.497 627.855 625.488 626.791 624.757 625.416C624.027 624.042 623.662 622.43 623.662 620.583ZM647.907 614.203V624.611C647.907 625.47 648.09 626.082 648.455 626.448C648.82 626.791 649.454 626.963 650.356 626.963H652.515V629.444H649.873C648.24 629.444 647.015 629.068 646.199 628.317C645.383 627.565 644.975 626.329 644.975 624.611V614.203H642.687V611.786H644.975V607.339H647.907V611.786H652.515V614.203H647.907ZM657.582 608.918C657.024 608.918 656.551 608.725 656.164 608.338C655.778 607.952 655.584 607.479 655.584 606.92C655.584 606.362 655.778 605.889 656.164 605.503C656.551 605.116 657.024 604.923 657.582 604.923C658.119 604.923 658.57 605.116 658.936 605.503C659.322 605.889 659.516 606.362 659.516 606.92C659.516 607.479 659.322 607.952 658.936 608.338C658.57 608.725 658.119 608.918 657.582 608.918ZM659 611.786V629.444H656.068V611.786H659ZM671.699 629.734C670.045 629.734 668.541 629.358 667.188 628.607C665.856 627.855 664.803 626.791 664.03 625.416C663.278 624.02 662.902 622.409 662.902 620.583C662.902 618.779 663.289 617.189 664.062 615.814C664.857 614.418 665.931 613.354 667.284 612.624C668.638 611.872 670.152 611.496 671.828 611.496C673.503 611.496 675.018 611.872 676.371 612.624C677.725 613.354 678.788 614.407 679.561 615.782C680.356 617.157 680.754 618.757 680.754 620.583C680.754 622.409 680.345 624.02 679.529 625.416C678.734 626.791 677.649 627.855 676.275 628.607C674.9 629.358 673.375 629.734 671.699 629.734ZM671.699 627.156C672.752 627.156 673.74 626.909 674.663 626.415C675.587 625.921 676.328 625.18 676.887 624.192C677.467 623.204 677.757 622.001 677.757 620.583C677.757 619.165 677.478 617.962 676.919 616.974C676.361 615.986 675.63 615.255 674.728 614.783C673.826 614.289 672.848 614.042 671.796 614.042C670.721 614.042 669.733 614.289 668.831 614.783C667.95 615.255 667.241 615.986 666.704 616.974C666.167 617.962 665.899 619.165 665.899 620.583C665.899 622.022 666.157 623.236 666.672 624.224C667.209 625.212 667.918 625.954 668.799 626.448C669.68 626.92 670.646 627.156 671.699 627.156ZM693.213 611.464C695.361 611.464 697.101 612.119 698.433 613.429C699.765 614.718 700.431 616.587 700.431 619.036V629.444H697.53V619.455C697.53 617.694 697.09 616.351 696.209 615.427C695.329 614.482 694.126 614.009 692.6 614.009C691.054 614.009 689.818 614.493 688.895 615.46C687.992 616.426 687.541 617.833 687.541 619.681V629.444H684.609V611.786H687.541V614.3C688.121 613.397 688.905 612.699 689.894 612.205C690.903 611.711 692.01 611.464 693.213 611.464ZM711.472 629.734C710.118 629.734 708.905 629.509 707.831 629.058C706.756 628.585 705.908 627.941 705.285 627.124C704.662 626.286 704.318 625.331 704.254 624.256H707.283C707.369 625.137 707.777 625.857 708.507 626.415C709.259 626.974 710.237 627.253 711.44 627.253C712.557 627.253 713.437 627.006 714.082 626.512C714.726 626.018 715.048 625.395 715.048 624.643C715.048 623.87 714.705 623.3 714.017 622.935C713.33 622.549 712.267 622.173 710.827 621.807C709.517 621.464 708.443 621.12 707.605 620.776C706.789 620.411 706.08 619.885 705.478 619.197C704.898 618.489 704.608 617.565 704.608 616.426C704.608 615.524 704.877 614.697 705.414 613.945C705.951 613.193 706.713 612.602 707.702 612.173C708.69 611.722 709.818 611.496 711.085 611.496C713.04 611.496 714.619 611.99 715.822 612.978C717.025 613.967 717.669 615.32 717.755 617.038H714.823C714.758 616.115 714.383 615.374 713.695 614.815C713.029 614.257 712.127 613.977 710.988 613.977C709.936 613.977 709.098 614.203 708.475 614.654C707.852 615.105 707.541 615.696 707.541 616.426C707.541 617.006 707.723 617.49 708.088 617.876C708.475 618.241 708.948 618.542 709.506 618.779C710.086 618.993 710.881 619.24 711.891 619.52C713.158 619.863 714.189 620.207 714.984 620.551C715.779 620.873 716.456 621.367 717.014 622.033C717.594 622.699 717.895 623.569 717.916 624.643C717.916 625.61 717.648 626.48 717.111 627.253C716.574 628.027 715.811 628.639 714.823 629.09C713.856 629.52 712.739 629.734 711.472 629.734ZM729.551 620.551C729.551 618.746 729.916 617.167 730.646 615.814C731.377 614.439 732.376 613.376 733.643 612.624C734.932 611.872 736.361 611.496 737.929 611.496C739.476 611.496 740.818 611.829 741.957 612.495C743.095 613.161 743.944 613.999 744.502 615.008V611.786H747.467V629.444H744.502V626.158C743.922 627.189 743.052 628.048 741.892 628.735C740.754 629.401 739.422 629.734 737.897 629.734C736.328 629.734 734.911 629.348 733.643 628.574C732.376 627.801 731.377 626.716 730.646 625.32C729.916 623.923 729.551 622.334 729.551 620.551ZM744.502 620.583C744.502 619.251 744.234 618.091 743.697 617.103C743.16 616.115 742.429 615.363 741.506 614.847C740.603 614.31 739.604 614.042 738.509 614.042C737.413 614.042 736.414 614.3 735.512 614.815C734.61 615.331 733.89 616.083 733.353 617.071C732.816 618.059 732.548 619.219 732.548 620.551C732.548 621.904 732.816 623.086 733.353 624.095C733.89 625.083 734.61 625.846 735.512 626.383C736.414 626.899 737.413 627.156 738.509 627.156C739.604 627.156 740.603 626.899 741.506 626.383C742.429 625.846 743.16 625.083 743.697 624.095C744.234 623.086 744.502 621.915 744.502 620.583ZM761.026 611.464C763.174 611.464 764.914 612.119 766.246 613.429C767.578 614.718 768.244 616.587 768.244 619.036V629.444H765.344V619.455C765.344 617.694 764.903 616.351 764.023 615.427C763.142 614.482 761.939 614.009 760.414 614.009C758.867 614.009 757.632 614.493 756.708 615.46C755.806 616.426 755.355 617.833 755.355 619.681V629.444H752.422V611.786H755.355V614.3C755.935 613.397 756.719 612.699 757.707 612.205C758.716 611.711 759.823 611.464 761.026 611.464ZM771.938 620.551C771.938 618.746 772.303 617.167 773.034 615.814C773.764 614.439 774.763 613.376 776.03 612.624C777.319 611.872 778.759 611.496 780.348 611.496C781.723 611.496 783.001 611.818 784.183 612.463C785.364 613.086 786.267 613.913 786.89 614.944V605.599H789.854V629.444H786.89V626.125C786.309 627.178 785.45 628.048 784.312 628.735C783.173 629.401 781.841 629.734 780.316 629.734C778.748 629.734 777.319 629.348 776.03 628.574C774.763 627.801 773.764 626.716 773.034 625.32C772.303 623.923 771.938 622.334 771.938 620.551ZM786.89 620.583C786.89 619.251 786.621 618.091 786.084 617.103C785.547 616.115 784.816 615.363 783.893 614.847C782.991 614.31 781.992 614.042 780.896 614.042C779.8 614.042 778.802 614.3 777.899 614.815C776.997 615.331 776.277 616.083 775.74 617.071C775.203 618.059 774.935 619.219 774.935 620.551C774.935 621.904 775.203 623.086 775.74 624.095C776.277 625.083 776.997 625.846 777.899 626.383C778.802 626.899 779.8 627.156 780.896 627.156C781.992 627.156 782.991 626.899 783.893 626.383C784.816 625.846 785.547 625.083 786.084 624.095C786.621 623.086 786.89 621.915 786.89 620.583ZM802.304 620.551C802.304 618.746 802.67 617.167 803.4 615.814C804.13 614.439 805.129 613.376 806.397 612.624C807.686 611.872 809.125 611.496 810.715 611.496C812.09 611.496 813.368 611.818 814.549 612.463C815.731 613.086 816.633 613.913 817.256 614.944V605.599H820.22V629.444H817.256V626.125C816.676 627.178 815.817 628.048 814.678 628.735C813.54 629.401 812.208 629.734 810.682 629.734C809.114 629.734 807.686 629.348 806.397 628.574C805.129 627.801 804.13 626.716 803.4 625.32C802.67 623.923 802.304 622.334 802.304 620.551ZM817.256 620.583C817.256 619.251 816.987 618.091 816.45 617.103C815.913 616.115 815.183 615.363 814.259 614.847C813.357 614.31 812.358 614.042 811.262 614.042C810.167 614.042 809.168 614.3 808.266 614.815C807.363 615.331 806.644 616.083 806.107 617.071C805.57 618.059 805.301 619.219 805.301 620.551C805.301 621.904 805.57 623.086 806.107 624.095C806.644 625.083 807.363 625.846 808.266 626.383C809.168 626.899 810.167 627.156 811.262 627.156C812.358 627.156 813.357 626.899 814.259 626.383C815.183 625.846 815.913 625.083 816.45 624.095C816.987 623.086 817.256 621.915 817.256 620.583ZM826.69 608.918C826.132 608.918 825.659 608.725 825.272 608.338C824.886 607.952 824.692 607.479 824.692 606.92C824.692 606.362 824.886 605.889 825.272 605.503C825.659 605.116 826.132 604.923 826.69 604.923C827.227 604.923 827.678 605.116 828.044 605.503C828.43 605.889 828.624 606.362 828.624 606.92C828.624 607.479 828.43 607.952 828.044 608.338C827.678 608.725 827.227 608.918 826.69 608.918ZM828.108 611.786V629.444H825.176V611.786H828.108ZM839.679 626.738L845.157 611.786H848.283L841.355 629.444H837.939L831.011 611.786H834.169L839.679 626.738ZM852.683 608.918C852.124 608.918 851.652 608.725 851.265 608.338C850.878 607.952 850.685 607.479 850.685 606.92C850.685 606.362 850.878 605.889 851.265 605.503C851.652 605.116 852.124 604.923 852.683 604.923C853.22 604.923 853.671 605.116 854.036 605.503C854.423 605.889 854.616 606.362 854.616 606.92C854.616 607.479 854.423 607.952 854.036 608.338C853.671 608.725 853.22 608.918 852.683 608.918ZM854.1 611.786V629.444H851.168V611.786H854.1ZM865.349 629.734C863.996 629.734 862.782 629.509 861.708 629.058C860.634 628.585 859.786 627.941 859.163 627.124C858.54 626.286 858.196 625.331 858.131 624.256H861.16C861.246 625.137 861.654 625.857 862.385 626.415C863.137 626.974 864.114 627.253 865.317 627.253C866.434 627.253 867.315 627.006 867.959 626.512C868.604 626.018 868.926 625.395 868.926 624.643C868.926 623.87 868.582 623.3 867.895 622.935C867.208 622.549 866.144 622.173 864.705 621.807C863.395 621.464 862.32 621.12 861.483 620.776C860.666 620.411 859.957 619.885 859.356 619.197C858.776 618.489 858.486 617.565 858.486 616.426C858.486 615.524 858.754 614.697 859.291 613.945C859.829 613.193 860.591 612.602 861.579 612.173C862.567 611.722 863.695 611.496 864.963 611.496C866.918 611.496 868.497 611.99 869.7 612.978C870.902 613.967 871.547 615.32 871.633 617.038H868.701C868.636 616.115 868.26 615.374 867.573 614.815C866.907 614.257 866.005 613.977 864.866 613.977C863.813 613.977 862.976 614.203 862.353 614.654C861.73 615.105 861.418 615.696 861.418 616.426C861.418 617.006 861.601 617.49 861.966 617.876C862.353 618.241 862.825 618.542 863.384 618.779C863.964 618.993 864.759 619.24 865.768 619.52C867.036 619.863 868.067 620.207 868.862 620.551C869.657 620.873 870.333 621.367 870.892 622.033C871.472 622.699 871.773 623.569 871.794 624.643C871.794 625.61 871.525 626.48 870.988 627.253C870.451 628.027 869.689 628.639 868.701 629.09C867.734 629.52 866.617 629.734 865.349 629.734ZM877.448 608.918C876.889 608.918 876.417 608.725 876.03 608.338C875.643 607.952 875.45 607.479 875.45 606.92C875.45 606.362 875.643 605.889 876.03 605.503C876.417 605.116 876.889 604.923 877.448 604.923C877.985 604.923 878.436 605.116 878.801 605.503C879.188 605.889 879.381 606.362 879.381 606.92C879.381 607.479 879.188 607.952 878.801 608.338C878.436 608.725 877.985 608.918 877.448 608.918ZM878.866 611.786V629.444H875.933V611.786H878.866ZM891.565 629.734C889.91 629.734 888.407 629.358 887.053 628.607C885.721 627.855 884.669 626.791 883.895 625.416C883.144 624.02 882.768 622.409 882.768 620.583C882.768 618.779 883.154 617.189 883.928 615.814C884.723 614.418 885.797 613.354 887.15 612.624C888.503 611.872 890.018 611.496 891.693 611.496C893.369 611.496 894.884 611.872 896.237 612.624C897.59 613.354 898.654 614.407 899.427 615.782C900.222 617.157 900.619 618.757 900.619 620.583C900.619 622.409 900.211 624.02 899.395 625.416C898.6 626.791 897.515 627.855 896.14 628.607C894.765 629.358 893.24 629.734 891.565 629.734ZM891.565 627.156C892.617 627.156 893.605 626.909 894.529 626.415C895.453 625.921 896.194 625.18 896.752 624.192C897.332 623.204 897.622 622.001 897.622 620.583C897.622 619.165 897.343 617.962 896.785 616.974C896.226 615.986 895.496 615.255 894.594 614.783C893.691 614.289 892.714 614.042 891.661 614.042C890.587 614.042 889.599 614.289 888.697 614.783C887.816 615.255 887.107 615.986 886.57 616.974C886.033 617.962 885.764 619.165 885.764 620.583C885.764 622.022 886.022 623.236 886.538 624.224C887.075 625.212 887.784 625.954 888.664 626.448C889.545 626.92 890.512 627.156 891.565 627.156ZM913.078 611.464C915.226 611.464 916.967 612.119 918.298 613.429C919.63 614.718 920.296 616.587 920.296 619.036V629.444H917.396V619.455C917.396 617.694 916.956 616.351 916.075 615.427C915.194 614.482 913.991 614.009 912.466 614.009C910.919 614.009 909.684 614.493 908.76 615.46C907.858 616.426 907.407 617.833 907.407 619.681V629.444H904.475V611.786H907.407V614.3C907.987 613.397 908.771 612.699 909.759 612.205C910.769 611.711 911.875 611.464 913.078 611.464ZM931.337 629.734C929.984 629.734 928.77 629.509 927.696 629.058C926.622 628.585 925.774 627.941 925.151 627.124C924.528 626.286 924.184 625.331 924.119 624.256H927.148C927.234 625.137 927.642 625.857 928.373 626.415C929.125 626.974 930.102 627.253 931.305 627.253C932.422 627.253 933.303 627.006 933.947 626.512C934.592 626.018 934.914 625.395 934.914 624.643C934.914 623.87 934.57 623.3 933.883 622.935C933.196 622.549 932.132 622.173 930.693 621.807C929.383 621.464 928.308 621.12 927.471 620.776C926.654 620.411 925.945 619.885 925.344 619.197C924.764 618.489 924.474 617.565 924.474 616.426C924.474 615.524 924.742 614.697 925.279 613.945C925.816 613.193 926.579 612.602 927.567 612.173C928.555 611.722 929.683 611.496 930.951 611.496C932.906 611.496 934.484 611.99 935.687 612.978C936.89 613.967 937.535 615.32 937.621 617.038H934.689C934.624 616.115 934.248 615.374 933.561 614.815C932.895 614.257 931.993 613.977 930.854 613.977C929.801 613.977 928.964 614.203 928.341 614.654C927.718 615.105 927.406 615.696 927.406 616.426C927.406 617.006 927.589 617.49 927.954 617.876C928.341 618.241 928.813 618.542 929.372 618.779C929.952 618.993 930.747 619.24 931.756 619.52C933.024 619.863 934.055 620.207 934.85 620.551C935.645 620.873 936.321 621.367 936.88 622.033C937.46 622.699 937.76 623.569 937.782 624.643C937.782 625.61 937.513 626.48 936.976 627.253C936.439 628.027 935.677 628.639 934.689 629.09C933.722 629.52 932.605 629.734 931.337 629.734Z" fill="white"/>
<rect x="884.575" y="-335.225" width="1082.67" height="590.97" rx="64.5572" transform="rotate(-11.6596 884.575 -335.225)" fill="#808AF2"/>
<mask id="mask0_224_48" style="mask-type:luminance" maskUnits="userSpaceOnUse" x="1044" y="46" width="213" height="115">
<path d="M1256.15 46.8473L1044.3 46.6367L1044.22 160.788L1256.06 160.999L1256.15 46.8473Z" fill="white"/>
</mask>
<g mask="url(#mask0_224_48)">
<path d="M1069.58 97.6958C1068.78 99.6699 1067.59 101.439 1066.1 102.889C1064.64 104.311 1062.95 105.448 1061.12 106.249C1059.3 107.049 1057.38 107.549 1055.42 107.73C1053.01 107.948 1050.95 107.78 1049.26 107.224C1047.77 106.732 1046.29 105.82 1044.83 104.489C1044.51 104.196 1044.49 103.679 1044.78 103.348L1050.35 96.9292C1050.65 96.5931 1051.14 96.5833 1051.48 96.8669C1051.92 97.2429 1052.41 97.5634 1052.93 97.8216C1053.73 98.1355 1054.59 98.2363 1055.43 98.1155C1057.08 97.9604 1058.38 97.3358 1059.35 96.2415C1060.31 95.1473 1060.79 93.5924 1060.79 91.5765L1060.81 63.7222C1060.81 63.2993 1061.11 62.947 1061.51 62.9106L1070.05 62.1212C1070.49 62.08 1070.88 62.456 1070.88 62.9344L1070.86 90.8911C1070.89 93.2301 1070.45 95.5493 1069.58 97.6958Z" fill="white"/>
<path d="M1107.73 93.5374C1106.94 95.5348 1105.8 97.3481 1104.36 98.8761C1102.91 100.412 1101.22 101.655 1099.35 102.544C1097.45 103.455 1095.42 104.013 1093.34 104.194C1091.33 104.404 1089.3 104.222 1087.36 103.655C1085.54 103.121 1083.84 102.186 1082.38 100.911C1080.94 99.641 1079.8 98.0253 1079.05 96.1948C1078.24 94.1986 1077.84 92.0402 1077.87 89.8647L1077.89 62.1295C1077.89 61.7068 1078.2 61.3545 1078.59 61.3179L1087.13 60.5257C1087.58 60.4843 1087.96 60.8604 1087.96 61.3389L1087.94 88.6857C1087.94 90.6993 1088.42 92.2266 1089.38 93.2674C1090.34 94.3116 1091.66 94.7501 1093.35 94.5961C1094.11 94.5533 1094.86 94.3484 1095.55 93.9932C1096.24 93.638 1096.86 93.1396 1097.37 92.5269C1098.36 91.3069 1098.86 89.6891 1098.87 87.6732L1098.89 60.1897C1098.89 59.767 1099.19 59.4147 1099.59 59.3781L1108.13 58.586C1108.58 58.5446 1108.96 58.9206 1108.96 59.3991L1108.94 86.991C1108.95 89.238 1108.54 91.4652 1107.73 93.5374Z" fill="white"/>
<path d="M1142.83 91.6699C1142.02 93.468 1140.86 95.0576 1139.43 96.3297C1137.91 97.6715 1136.2 98.7362 1134.36 99.4808C1132.38 100.29 1130.31 100.793 1128.2 100.975C1124.83 101.29 1121.88 101.142 1119.37 100.532C1117.08 99.9738 1114.97 98.8133 1113.21 97.1611C1112.9 96.8704 1112.89 96.3669 1113.17 96.0425L1118.61 89.7011C1118.89 89.374 1119.37 89.3502 1119.7 89.61C1120.7 90.3783 1121.85 90.8912 1123.07 91.1038C1124.78 91.4504 1126.53 91.537 1128.27 91.3606C1132.19 91.0003 1134.15 89.5042 1134.15 86.8723C1134.15 85.7628 1133.89 84.9246 1133.35 84.3579C1132.81 83.7909 1131.87 83.4886 1130.64 83.4378L1128.23 83.2929L1125.7 83.1579C1122.05 82.918 1119.31 81.8776 1117.47 80.0366C1115.59 78.1139 1114.65 75.2626 1114.66 71.4826C1114.63 69.548 1114.97 67.6282 1115.67 65.8446C1116.37 64.0609 1117.41 62.4523 1118.72 61.1205C1121.43 58.2816 1125.07 56.6502 1129.63 56.2264C1132.62 55.9512 1135.24 56.1194 1137.48 56.731C1139.46 57.2663 1141.3 58.2643 1142.86 59.6493C1143.19 59.9358 1143.21 60.452 1142.92 60.7827L1137.84 66.6863C1137.43 67.1583 1136.74 67.171 1136.25 66.8117C1135.48 66.261 1134.61 65.8918 1133.7 65.7356C1132.25 65.5385 1130.79 65.5192 1129.34 65.6783C1127.73 65.829 1126.5 66.3544 1125.65 67.2543C1125.27 67.6281 1124.95 68.0828 1124.74 68.5906C1124.52 69.0984 1124.4 69.6486 1124.39 70.2073C1124.38 70.5765 1124.45 70.9429 1124.59 71.2811C1124.73 71.6193 1124.93 71.921 1125.19 72.1653C1125.84 72.8041 1126.78 73.1483 1128.01 73.1981L1130.25 73.2964L1132.96 73.478C1136.56 73.6802 1139.25 74.6433 1141.01 76.3673C1143.04 78.3167 1144.06 81.4276 1144.05 85.6998C1144.07 87.7633 1143.65 89.8042 1142.83 91.6699Z" fill="white"/>
<path d="M1169.09 62.5428C1168.7 62.5794 1168.4 62.9317 1168.4 63.3544L1168.37 96.1318C1168.37 96.5545 1168.07 96.9068 1167.67 96.9434L1159.13 97.7355C1158.68 97.777 1158.3 97.4008 1158.3 96.9223L1158.33 64.4315C1158.33 63.953 1157.94 63.5769 1157.5 63.6184L1149.09 64.3982C1148.64 64.4395 1148.26 64.0636 1148.26 63.5851L1148.26 55.6045C1148.26 55.1818 1148.57 54.8295 1148.96 54.7929L1177.64 52.133C1178.09 52.0915 1178.47 52.4676 1178.47 52.9461L1178.47 60.9266C1178.47 61.3493 1178.16 61.7017 1177.77 61.7382L1169.09 62.5428Z" fill="white"/>
<path d="M1075.87 154.876C1073.49 157.373 1070.42 158.798 1066.66 159.152L1049.65 160.714C1049.2 160.755 1048.82 160.379 1048.82 159.901L1048.85 117.665C1048.85 117.242 1049.15 116.89 1049.55 116.853L1065.83 115.342C1070.02 114.955 1073.24 115.804 1075.51 117.888C1077.77 119.973 1078.9 122.955 1078.9 126.834C1078.9 129.013 1078.42 130.855 1077.46 132.36C1076.62 133.719 1075.59 134.928 1074.4 135.94C1074.99 136.277 1075.55 136.645 1076.1 137.045C1076.69 137.501 1077.21 138.045 1077.65 138.659C1078.21 139.449 1078.65 140.336 1078.94 141.284C1079.31 142.49 1079.48 143.754 1079.46 145.023C1079.44 149.092 1078.25 152.377 1075.87 154.876ZM1067.95 125.869C1067.37 125.226 1066.45 124.962 1065.19 125.078L1059.61 125.597C1059.22 125.633 1058.91 125.986 1058.91 126.408L1058.91 131.921C1058.91 132.4 1059.29 132.776 1059.74 132.735L1065.18 132.229C1066.45 132.111 1067.37 131.677 1067.94 130.926C1068.51 130.195 1068.82 129.27 1068.81 128.317C1068.82 127.869 1068.75 127.421 1068.61 127.001C1068.46 126.581 1068.24 126.196 1067.95 125.869ZM1068.48 142.72C1067.89 142.033 1066.96 141.75 1065.7 141.87L1059.6 142.434C1059.2 142.471 1058.9 142.823 1058.9 143.246L1058.89 149.312C1058.89 149.791 1059.28 150.167 1059.72 150.126L1065.69 149.573C1066.96 149.455 1067.89 148.989 1068.48 148.175C1069.07 147.371 1069.39 146.372 1069.37 145.348C1069.41 144.381 1069.09 143.438 1068.48 142.72Z" fill="white"/>
<path d="M1087.22 157.242C1086.77 157.283 1086.39 156.907 1086.39 156.429L1086.42 114.177C1086.42 113.754 1086.73 113.402 1087.12 113.365L1113.45 110.925C1113.89 110.883 1114.28 111.259 1114.28 111.738L1114.27 119.715C1114.27 120.138 1113.97 120.49 1113.57 120.527L1097.19 122.049C1096.79 122.085 1096.49 122.438 1096.49 122.86L1096.48 128.556C1096.48 129.034 1096.87 129.41 1097.31 129.369L1110.84 128.114C1111.29 128.073 1111.67 128.449 1111.67 128.927L1111.67 136.908C1111.67 137.33 1111.36 137.683 1110.97 137.719L1097.17 138.999C1096.78 139.036 1096.48 139.388 1096.48 139.811L1096.47 145.877C1096.47 146.355 1096.85 146.732 1097.3 146.69L1113.42 145.196C1113.87 145.155 1114.25 145.531 1114.25 146.009L1114.24 153.99C1114.24 154.412 1113.94 154.765 1113.55 154.801L1087.22 157.242Z" fill="white"/>
<path d="M1139.82 118.092C1139.43 118.128 1139.12 118.481 1139.12 118.903L1139.1 151.681C1139.1 152.103 1138.8 152.456 1138.4 152.492L1129.86 153.284C1129.41 153.326 1129.03 152.95 1129.03 152.471L1129.05 119.98C1129.05 119.502 1128.67 119.126 1128.22 119.167L1119.81 119.947C1119.37 119.988 1118.98 119.612 1118.98 119.134L1118.99 111.153C1118.99 110.731 1119.29 110.378 1119.69 110.342L1148.37 107.682C1148.82 107.64 1149.2 108.016 1149.2 108.495L1149.2 116.475C1149.2 116.898 1148.89 117.25 1148.5 117.287L1139.82 118.092Z" fill="white"/>
<path d="M1173.48 114.968C1173.09 115.005 1172.78 115.357 1172.78 115.78L1172.76 148.56C1172.76 148.983 1172.45 149.335 1172.06 149.372L1163.52 150.164C1163.07 150.206 1162.69 149.83 1162.69 149.351L1162.71 116.857C1162.71 116.378 1162.33 116.002 1161.88 116.044L1153.47 116.823C1153.03 116.865 1152.64 116.489 1152.64 116.01L1152.65 108.033C1152.65 107.611 1152.95 107.258 1153.35 107.222L1182.03 104.562C1182.48 104.52 1182.86 104.896 1182.86 105.375L1182.85 113.352C1182.85 113.775 1182.55 114.127 1182.16 114.164L1173.48 114.968Z" fill="white"/>
<path d="M1189.53 147.747C1189.08 147.789 1188.7 147.413 1188.7 146.934L1188.73 104.685C1188.73 104.263 1189.03 103.91 1189.43 103.874L1215.75 101.433C1216.2 101.392 1216.58 101.768 1216.58 102.247L1216.57 110.224C1216.57 110.646 1216.27 110.999 1215.87 111.035L1199.49 112.554C1199.09 112.591 1198.79 112.943 1198.79 113.366L1198.79 119.065C1198.79 119.543 1199.17 119.919 1199.62 119.878L1213.14 118.623C1213.59 118.581 1213.98 118.958 1213.97 119.436L1213.97 127.413C1213.97 127.836 1213.67 128.188 1213.27 128.225L1199.47 129.508C1199.08 129.544 1198.78 129.897 1198.78 130.319L1198.77 136.386C1198.77 136.864 1199.16 137.24 1199.6 137.199L1215.72 135.705C1216.17 135.663 1216.55 136.039 1216.55 136.518L1216.55 144.495C1216.55 144.918 1216.24 145.27 1215.85 145.307L1189.53 147.747Z" fill="white"/>
<path d="M1244.91 142.609C1244.6 142.639 1244.3 142.459 1244.16 142.157L1237.39 127.484C1237.25 127.182 1236.95 127.002 1236.63 127.032L1234.45 127.243C1234.06 127.281 1233.75 127.633 1233.75 128.054L1233.74 142.897C1233.74 143.32 1233.44 143.672 1233.05 143.709L1224.5 144.501C1224.06 144.542 1223.67 144.166 1223.67 143.688L1223.71 101.439C1223.71 101.017 1224.01 100.664 1224.4 100.628L1239.93 99.1883C1241.92 98.9666 1243.93 99.1667 1245.85 99.7771C1247.51 100.307 1249.02 101.243 1250.28 102.511C1251.46 103.722 1252.38 105.192 1252.98 106.819C1253.6 108.468 1253.91 110.227 1253.9 112.003C1253.95 114.569 1253.28 117.091 1251.97 119.24C1250.9 121.011 1249.49 122.519 1247.85 123.672C1247.51 123.913 1247.38 124.394 1247.57 124.781L1255.52 140.481C1255.78 140.997 1255.46 141.63 1254.92 141.681L1244.91 142.609ZM1242.66 109.938C1241.88 109.125 1240.81 108.781 1239.47 108.908L1234.49 109.362C1234.09 109.398 1233.79 109.751 1233.79 110.174L1233.78 117.412C1233.78 117.89 1234.17 118.266 1234.61 118.225L1239.48 117.774C1240.08 117.743 1240.68 117.584 1241.22 117.305C1241.77 117.027 1242.26 116.634 1242.67 116.151C1243.43 115.275 1243.85 114.125 1243.85 112.93C1243.86 112.37 1243.76 111.814 1243.56 111.298C1243.35 110.783 1243.05 110.32 1242.66 109.938Z" fill="white"/>
<path d="M1209.13 154.134L1255.37 149.845C1255.76 149.809 1256.07 149.457 1256.07 149.034L1256.07 147.36C1256.07 146.882 1255.68 146.506 1255.24 146.547L1209.13 150.823" fill="white"/>
<path d="M1179.14 156.864L1201.94 154.75C1202.33 154.713 1202.64 154.361 1202.64 153.939L1202.64 152.264C1202.64 151.786 1202.26 151.41 1201.81 151.451L1179.14 153.553" fill="white"/>
<path d="M1060.82 57.1194L1107.06 52.8307C1107.46 52.7941 1107.76 52.4419 1107.76 52.0194L1107.76 50.3452C1107.76 49.8669 1107.38 49.491 1106.93 49.5324L1060.83 53.8087" fill="white"/>
<path d="M1114.25 52.2166L1137.05 50.1027C1137.44 50.0662 1137.74 49.7139 1137.74 49.2913L1137.75 47.617C1137.75 47.1386 1137.36 46.7626 1136.92 46.804L1114.25 48.9055" fill="white"/>
</g>
<rect x="1109" y="691.069" width="346.746" height="388.163" rx="80.6917" transform="rotate(-12.8421 1109 691.069)" fill="#808AF2"/>
<g clip-path="url(#clip1_224_48)">
<path d="M1182.05 773.779H1163V779.443H1184.68V773.779H1182.05ZM1181.82 783.558H1163V789.221H1165.86V789.221H1181.82V789.221H1184.68V783.558H1181.82ZM1258.46 788.513H1249.91C1248.48 788.513 1247.64 787.76 1247.64 786.389C1247.64 785.017 1248.48 784.265 1249.91 784.265H1258.46V788.513ZM1254.49 768.868H1246.59L1243.09 768.868V774.531H1246.59L1254.14 774.531C1257.52 774.531 1258.43 775.821 1258.45 778.779H1249.64C1244.43 778.779 1241.58 781.434 1241.58 786.389C1241.58 791.301 1244.43 794 1249.64 794H1263.49L1263.49 794H1264.6V778.559C1264.6 772.009 1262.11 768.868 1254.49 768.868ZM1286.52 788.336H1279.36C1275.48 788.336 1274.06 786.478 1274.06 781.434C1274.06 776.391 1275.48 774.532 1279.36 774.532H1286.44L1286.45 774.531H1287.55V768.868H1278.73C1270.85 768.868 1267.82 772.762 1267.82 781.434C1267.82 790.106 1270.85 794 1278.73 794H1287.64V788.336H1286.53L1286.52 788.336ZM1208.52 788.336H1201.77C1198.55 788.336 1197.06 787.204 1196.64 784.355H1206.6V784.359H1210.09V783.35C1210.1 783.316 1210.1 783.283 1210.1 783.248V779.797C1210.1 779.762 1210.1 779.728 1210.09 779.695V778.696H1209.11C1209.07 778.692 1209.03 778.69 1208.98 778.69H1196.62C1197 775.739 1198.49 774.531 1201.77 774.531H1211.92V768.868H1208.87V768.868H1201.15C1193.27 768.868 1190.24 772.761 1190.24 781.434C1190.24 790.105 1193.27 794 1201.15 794H1210.9C1210.9 794 1210.91 794 1210.91 794H1212.01V788.336H1208.52ZM1303.87 788.336H1298.93C1297.72 788.336 1297.01 787.496 1297.01 785.992V774.531H1304.45V768.868H1297.01V764.089H1290.87V786.434C1290.87 791.611 1293.32 794 1298.39 794H1303.87L1303.88 794H1304.98V788.336H1303.87ZM1240.06 792.85L1231.06 781.054L1239.48 770.018V770.018L1240.35 768.868H1233.14L1232.53 769.664L1232.53 769.664L1227.46 776.322L1222.38 769.664L1222.38 769.664L1221.77 768.868H1214.29L1223.71 781.23L1213.98 794L1216.44 794H1221.19L1221.8 793.204L1221.8 793.204L1227.32 785.962L1232.84 793.204V793.204L1233.45 794H1240.93L1240.06 792.85Z" fill="white"/>
</g>
</g>
<defs>
<clipPath id="clip0_224_48">
<rect width="1330" height="888" rx="24" fill="white"/>
</clipPath>
<clipPath id="clip1_224_48">
<rect width="142" height="30" fill="white" transform="translate(1163 764)"/>
</clipPath>
</defs>
</svg>
